<svg width="980" height="680" viewBox="0 0 980 680" fill="none" xmlns="http://www.w3.org/2000/svg">
<g clip-path="url(#clip0_237_63242)">
<path d="M324.692 566.945V622.429C324.692 622.429 369.839 639.847 405.488 644.208C405.488 644.208 462.731 650.901 479.067 649.735V592.738L462.918 574.128L324.686 566.945H324.692Z" fill="#5E5E5E"/>
<path d="M490.287 274.681H260.316C260.316 236.977 319.531 204.678 403.524 191.272H403.537L490.294 274.681H490.287Z" fill="#777777"/>
<path d="M324.783 341.296C324.783 339.447 326.091 338.449 327.516 338.287C285.996 321.996 260.316 299.508 260.316 274.688V559.97C260.316 584.255 284.875 606.286 324.783 622.481V341.296Z" fill="#ABABAB" stroke="#1B1B1B" stroke-width="0.98" stroke-miterlimit="10"/>
<path d="M673.545 386.195V614.248C702.563 599.181 719.775 580.429 719.775 560.105V402.1C702.067 402.01 686.749 395.839 673.545 386.195Z" fill="#ABABAB"/>
<path d="M672.887 329.372C635.866 303.689 564.594 257.675 490.029 257.675V650C490.12 650 490.203 650 490.294 650C533.443 650 573.816 645.349 608.317 637.252V637.278C612.912 636.196 617.397 635.049 621.773 633.844C621.915 633.806 622.05 633.767 622.192 633.728C622.965 633.516 623.738 633.297 624.511 633.078C624.84 632.988 625.175 632.897 625.504 632.801C643.747 627.57 659.948 621.309 673.551 614.248V329.572L672.894 329.372H672.887Z" fill="#5E5E5E"/>
<path d="M479.211 552.922C553.776 552.922 631.176 539.633 673.198 518.085L490.34 463.433L479.211 552.922V552.922Z" fill="#777777"/>
<path d="M479.211 552.922C553.776 552.922 631.176 539.633 673.198 518.085L490.34 463.433L479.211 552.922V552.922Z" fill="#777777"/>
<path d="M720.001 394.235C720.001 381.989 713.757 370.31 702.46 359.661L701.912 359.507L490.023 394.235L672.882 448.887C702.441 433.729 720.001 414.784 720.001 394.235Z" fill="#777777"/>
<path d="M697.787 293.304C697.722 293.304 697.664 293.304 697.606 293.297C689.403 293.252 681.193 292.949 673.048 291.912C658.052 290.006 643.205 285.715 631.142 276.265C624.833 271.318 619.678 265.147 615.579 258.273C614.838 257.03 614.149 255.767 613.478 254.485L490.016 274.719V394.234L701.904 359.661V293.304H697.774H697.787Z" fill="#5E5E5E"/>
<path d="M487.085 593.132L490.03 504.318L324.693 566.946C366.509 583.888 422.186 593.132 487.085 593.132Z" fill="#919191"/>
<path d="M324.693 337.353V566.946L490.03 504.319V274.72L324.693 337.353Z" fill="#474747"/>
<path d="M479.068 552.87C553.633 552.87 631.033 539.581 673.055 518.033L490.197 463.381L479.068 552.87V552.87Z" fill="#777777"/>
<path d="M479.068 552.87V649.736L490.03 650L523.539 598.195L498.484 552.922L479.068 552.87Z" fill="#5E5E5E"/>
<path d="M490.028 184.611C363.015 184.611 260.051 224.956 260.051 274.719C260.051 299.057 284.674 321.139 324.692 337.347L490.028 274.719L543.34 187.046C526.231 185.455 508.381 184.611 490.028 184.611V184.611Z" fill="#00DB00"/>
<path d="M543.339 240.52L490.027 328.193L701.916 293.465L702.206 293.387C674.136 267.144 615.282 247.213 543.339 240.526V240.52Z" fill="#777777"/>
<path d="M543.341 187.047V240.52L490.029 328.187V274.72L543.341 187.047Z" fill="#474747"/>
<path d="M580.28 292.988C576.516 292.988 573.069 290.482 572.044 286.675L551.423 210.146C551.397 210.05 551.371 209.953 551.352 209.857C547.924 195.085 542.743 172.848 540.487 163.392C535.313 169.724 519.705 190.08 505.405 208.974L503.575 241.866C503.311 246.568 499.277 250.169 494.579 249.912C489.875 249.648 486.273 245.628 486.531 240.919L488.502 205.431C488.599 203.737 489.192 202.113 490.217 200.761C498.607 189.668 526.259 153.194 529.906 149.574C534.481 145.026 537.639 143.57 542.884 143.57C548.716 143.57 553.904 147.854 555.798 154.232C556.501 156.602 565.22 194.145 567.939 205.856L588.522 282.243C589.746 286.791 587.052 291.474 582.503 292.698C581.762 292.898 581.014 292.995 580.28 292.995V292.988Z" fill="#474747"/>
<path d="M535.621 145.336L536.51 129.199L545.384 126.887L550.14 143.732C551.577 148.808 547.388 153.717 542.143 153.098C538.257 152.641 535.402 149.24 535.615 145.343L535.621 145.336Z" fill="#C6C6C6"/>
<path d="M534.184 149.548L532.205 131.582C531.464 124.838 535.363 122.332 537.754 121.436C539.938 120.618 542.02 120.528 543.541 120.464C543.734 120.457 543.927 120.444 544.108 120.438C545.042 120.386 554.244 119.549 561.12 118.918L562.158 117.745C564.284 115.336 567.957 115.104 570.367 117.23C572.778 119.356 573.01 123.028 570.883 125.437L568.318 128.342C567.339 129.456 565.966 130.152 564.49 130.287C561.442 130.571 546.151 131.975 544.733 132.052C544.507 132.065 544.275 132.072 544.03 132.085H543.96L545.738 148.273L534.171 149.548H534.184Z" fill="#C6C6C6"/>
<path d="M536.259 118.28C537.658 117.92 538.499 116.493 538.138 115.095C537.777 113.696 536.35 112.855 534.951 113.216C533.552 113.577 532.711 115.003 533.072 116.402C533.433 117.8 534.86 118.641 536.259 118.28Z" fill="#E64D4F"/>
<path d="M568.718 40.8882C542.813 20.9379 516.901 44.6309 490.996 31C488.972 47.4782 486.949 63.7308 484.932 79.713C511.539 100.282 538.147 74.8236 564.755 91.0377C566.076 74.2117 567.397 57.4952 568.718 40.8882V40.8882Z" fill="#00B400"/>
<path d="M558.935 171.748C558.884 171.748 558.839 171.748 558.787 171.748C557.717 171.664 556.918 170.736 557.002 169.667L567.106 36.4888C567.19 35.4195 568.118 34.6271 569.188 34.7044C570.258 34.7882 571.057 35.7158 570.973 36.7851L560.869 169.963C560.791 170.981 559.941 171.754 558.935 171.754V171.748Z" fill="#303030"/>
<path d="M540.383 151.971C539.236 151.971 538.114 151.365 537.509 150.296C536.613 148.711 537.174 146.701 538.759 145.806L558.916 134.417C560.501 133.521 562.512 134.082 563.408 135.666C564.303 137.251 563.743 139.261 562.157 140.156L542 151.546C541.485 151.835 540.931 151.971 540.383 151.971Z" fill="#E64D4F"/>
<path d="M539.971 154.728C537.941 154.728 535.969 153.665 534.899 151.771C533.32 148.975 534.306 145.426 537.103 143.848L539.423 142.534C542.22 140.955 545.77 141.941 547.349 144.737C548.928 147.532 547.942 151.082 545.145 152.66L542.825 153.974C541.923 154.483 540.937 154.728 539.971 154.728V154.728Z" fill="#C6C6C6"/>
<path d="M574.97 296.982C574.673 296.982 574.37 296.899 574.093 296.731C573.32 296.248 573.081 295.23 573.565 294.457L578.514 286.54C578.997 285.767 580.022 285.535 580.795 286.012C581.568 286.495 581.807 287.513 581.323 288.286L576.374 296.203C576.059 296.705 575.524 296.982 574.97 296.982Z" fill="#474747"/>
<path d="M485.569 250.666C484.815 250.666 484.132 250.144 483.958 249.371C483.759 248.482 484.319 247.6 485.209 247.4L494.32 245.365C495.21 245.165 496.093 245.725 496.292 246.614C496.492 247.503 495.932 248.386 495.042 248.586L485.93 250.621C485.808 250.647 485.685 250.66 485.569 250.66V250.666Z" fill="#474747"/>
<path d="M568.802 123.066C567.752 123.066 566.721 122.57 566.083 121.643L561.359 114.789C560.328 113.288 560.702 111.239 562.204 110.202C563.705 109.171 565.754 109.545 566.792 111.046L571.515 117.9C572.546 119.401 572.173 121.449 570.671 122.486C570.098 122.879 569.447 123.066 568.802 123.066Z" fill="#E64D4F"/>
</g>
<defs>
<clipPath id="clip0_237_63242">
<rect width="460" height="619" fill="white" transform="translate(260 31)"/>
</clipPath>
</defs>
</svg>
