<svg width="510" height="510" viewBox="0 0 510 510" fill="none" xmlns="http://www.w3.org/2000/svg">
<g clip-path="url(#clip0_249_94679)">
<path d="M319.888 21H85.8054C80.39 21 76 25.4085 76 30.8466V400.033C76 405.471 80.39 409.88 85.8054 409.88H319.888C325.303 409.88 329.694 405.471 329.694 400.033V30.8466C329.694 25.4085 325.303 21 319.888 21Z" fill="#474747"/>
<path d="M255.907 36.71H107.679C98.5862 36.71 91.2148 44.1123 91.2148 53.2435V309.085C91.2148 318.216 98.5862 325.619 107.679 325.619H255.907C265 325.619 272.371 318.216 272.371 309.085V53.2435C272.371 44.1123 265 36.71 255.907 36.71Z" fill="#00D639"/>
<path d="M310.346 139.466H289.454C287.173 139.466 285.324 141.323 285.324 143.613V218.715C285.324 221.006 287.173 222.862 289.454 222.862H310.346C312.627 222.862 314.476 221.006 314.476 218.715V143.613C314.476 141.323 312.627 139.466 310.346 139.466Z" fill="#303030"/>
<path d="M260.057 340.579H103.529C96.7282 340.579 91.2148 346.116 91.2148 352.945V380.122C91.2148 386.952 96.7282 392.488 103.529 392.488H260.057C266.858 392.488 272.371 386.952 272.371 380.122V352.945C272.371 346.116 266.858 340.579 260.057 340.579Z" fill="#303030"/>
<path d="M311.169 246.635H303.201C301.377 246.635 299.898 248.119 299.898 249.951V257.952C299.898 259.784 301.377 261.268 303.201 261.268H311.169C312.992 261.268 314.471 259.784 314.471 257.952V249.951C314.471 248.119 312.992 246.635 311.169 246.635Z" fill="#303030"/>
<path d="M299.899 174.528C301.67 174.528 303.106 173.086 303.106 171.307C303.106 169.528 301.67 168.086 299.899 168.086C298.127 168.086 296.691 169.528 296.691 171.307C296.691 173.086 298.127 174.528 299.899 174.528Z" fill="#474747"/>
<path d="M292.254 174.528C294.026 174.528 295.462 173.086 295.462 171.307C295.462 169.528 294.026 168.086 292.254 168.086C290.483 168.086 289.047 169.528 289.047 171.307C289.047 173.086 290.483 174.528 292.254 174.528Z" fill="#474747"/>
<path d="M307.547 174.528C309.319 174.528 310.755 173.086 310.755 171.307C310.755 169.528 309.319 168.086 307.547 168.086C305.776 168.086 304.34 169.528 304.34 171.307C304.34 173.086 305.776 174.528 307.547 174.528Z" fill="#474747"/>
<path d="M307.547 182.209C309.319 182.209 310.755 180.767 310.755 178.988C310.755 177.21 309.319 175.768 307.547 175.768C305.776 175.768 304.34 177.21 304.34 178.988C304.34 180.767 305.776 182.209 307.547 182.209Z" fill="#474747"/>
<path d="M299.899 182.209C301.67 182.209 303.106 180.767 303.106 178.988C303.106 177.21 301.67 175.768 299.899 175.768C298.127 175.768 296.691 177.21 296.691 178.988C296.691 180.767 298.127 182.209 299.899 182.209Z" fill="#474747"/>
<path d="M292.254 182.209C294.026 182.209 295.462 180.767 295.462 178.988C295.462 177.21 294.026 175.768 292.254 175.768C290.483 175.768 289.047 177.21 289.047 178.988C289.047 180.767 290.483 182.209 292.254 182.209Z" fill="#474747"/>
<path d="M292.254 189.89C294.026 189.89 295.462 188.448 295.462 186.669C295.462 184.89 294.026 183.448 292.254 183.448C290.483 183.448 289.047 184.89 289.047 186.669C289.047 188.448 290.483 189.89 292.254 189.89Z" fill="#474747"/>
<path d="M299.899 189.89C301.67 189.89 303.106 188.448 303.106 186.669C303.106 184.89 301.67 183.448 299.899 183.448C298.127 183.448 296.691 184.89 296.691 186.669C296.691 188.448 298.127 189.89 299.899 189.89Z" fill="#474747"/>
<path d="M307.547 189.89C309.319 189.89 310.755 188.448 310.755 186.669C310.755 184.89 309.319 183.448 307.547 183.448C305.776 183.448 304.34 184.89 304.34 186.669C304.34 188.448 305.776 189.89 307.547 189.89Z" fill="#474747"/>
<path d="M307.547 197.565C309.319 197.565 310.755 196.123 310.755 194.344C310.755 192.565 309.319 191.123 307.547 191.123C305.776 191.123 304.34 192.565 304.34 194.344C304.34 196.123 305.776 197.565 307.547 197.565Z" fill="#474747"/>
<path d="M299.899 197.565C301.67 197.565 303.106 196.123 303.106 194.344C303.106 192.565 301.67 191.123 299.899 191.123C298.127 191.123 296.691 192.565 296.691 194.344C296.691 196.123 298.127 197.565 299.899 197.565Z" fill="#474747"/>
<path d="M292.254 197.565C294.026 197.565 295.462 196.123 295.462 194.344C295.462 192.565 294.026 191.123 292.254 191.123C290.483 191.123 289.047 192.565 289.047 194.344C289.047 196.123 290.483 197.565 292.254 197.565Z" fill="#474747"/>
<path d="M310.753 143.225H289.047V161.638H310.753V143.225Z" fill="#474747"/>
<path d="M159.17 165.199C168.098 165.199 175.336 157.931 175.336 148.965C175.336 140 168.098 132.731 159.17 132.731C150.242 132.731 143.004 140 143.004 148.965C143.004 157.931 150.242 165.199 159.17 165.199Z" fill="#474747"/>
<path d="M118.693 203.346C127.622 203.346 134.86 196.078 134.86 187.112C134.86 178.146 127.622 170.878 118.693 170.878C109.765 170.878 102.527 178.146 102.527 187.112C102.527 196.078 109.765 203.346 118.693 203.346Z" fill="#474747"/>
<path d="M159.17 203.346C168.098 203.346 175.336 196.078 175.336 187.112C175.336 178.146 168.098 170.878 159.17 170.878C150.242 170.878 143.004 178.146 143.004 187.112C143.004 196.078 150.242 203.346 159.17 203.346Z" fill="#474747"/>
<path d="M118.693 241.493C127.622 241.493 134.86 234.225 134.86 225.259C134.86 216.294 127.622 209.025 118.693 209.025C109.765 209.025 102.527 216.294 102.527 225.259C102.527 234.225 109.765 241.493 118.693 241.493Z" fill="#474747"/>
<path d="M159.17 241.493C168.098 241.493 175.336 234.225 175.336 225.259C175.336 216.294 168.098 209.025 159.17 209.025C150.242 209.025 143.004 216.294 143.004 225.259C143.004 234.225 150.242 241.493 159.17 241.493Z" fill="#474747"/>
<path d="M118.693 277.25C127.622 277.25 134.86 269.982 134.86 261.016C134.86 252.05 127.622 244.782 118.693 244.782C109.765 244.782 102.527 252.05 102.527 261.016C102.527 269.982 109.765 277.25 118.693 277.25Z" fill="#474747"/>
<path d="M159.17 277.25C168.098 277.25 175.336 269.982 175.336 261.016C175.336 252.05 168.098 244.782 159.17 244.782C150.242 244.782 143.004 252.05 143.004 261.016C143.004 269.982 150.242 277.25 159.17 277.25Z" fill="#474747"/>
<path d="M159.17 389.294C168.098 389.294 175.336 382.026 175.336 373.06C175.336 364.094 168.098 356.826 159.17 356.826C150.242 356.826 143.004 364.094 143.004 373.06C143.004 382.026 150.242 389.294 159.17 389.294Z" fill="white"/>
<path d="M199.654 277.25C208.583 277.25 215.82 269.982 215.82 261.016C215.82 252.05 208.583 244.782 199.654 244.782C190.726 244.782 183.488 252.05 183.488 261.016C183.488 269.982 190.726 277.25 199.654 277.25Z" fill="#474747"/>
<path d="M118.693 313C127.622 313 134.86 305.732 134.86 296.766C134.86 287.8 127.622 280.532 118.693 280.532C109.765 280.532 102.527 287.8 102.527 296.766C102.527 305.732 109.765 313 118.693 313Z" fill="#474747"/>
<path d="M159.17 313C168.098 313 175.336 305.732 175.336 296.766C175.336 287.8 168.098 280.532 159.17 280.532C150.242 280.532 143.004 287.8 143.004 296.766C143.004 305.732 150.242 313 159.17 313Z" fill="#474747"/>
<path d="M239.838 203.346C248.766 203.346 256.004 196.078 256.004 187.112C256.004 178.146 248.766 170.878 239.838 170.878C230.91 170.878 223.672 178.146 223.672 187.112C223.672 196.078 230.91 203.346 239.838 203.346Z" fill="#474747"/>
<path d="M239.838 241.493C248.766 241.493 256.004 234.225 256.004 225.259C256.004 216.294 248.766 209.025 239.838 209.025C230.91 209.025 223.672 216.294 223.672 225.259C223.672 234.225 230.91 241.493 239.838 241.493Z" fill="#474747"/>
<path d="M239.838 277.25C248.766 277.25 256.004 269.982 256.004 261.016C256.004 252.05 248.766 244.782 239.838 244.782C230.91 244.782 223.672 252.05 223.672 261.016C223.672 269.982 230.91 277.25 239.838 277.25Z" fill="#474747"/>
<path d="M239.838 313C248.766 313 256.004 305.732 256.004 296.766C256.004 287.8 248.766 280.532 239.838 280.532C230.91 280.532 223.672 287.8 223.672 296.766C223.672 305.732 230.91 313 239.838 313Z" fill="#474747"/>
<path d="M199.654 313C208.583 313 215.82 305.732 215.82 296.766C215.82 287.8 208.583 280.532 199.654 280.532C190.726 280.532 183.488 287.8 183.488 296.766C183.488 305.732 190.726 313 199.654 313Z" fill="#474747"/>
<path d="M339.484 288.996C339.362 288.996 339.247 288.996 339.125 288.989C335.463 288.792 332.649 285.652 332.846 281.975C333.124 276.759 335.829 272.558 340.284 270.399L345.479 263.181C347.628 260.192 351.778 259.517 354.749 261.676C357.725 263.835 358.397 268.002 356.247 270.985L350.91 278.407C349.697 280.096 348.049 281.465 346.143 282.37C346.13 282.438 346.116 282.541 346.109 282.684C345.92 286.238 342.99 288.996 339.484 288.996Z" fill="#B26E3D"/>
<path d="M358.506 277.768C356.471 277.768 354.403 277.298 352.464 276.304C345.92 272.946 343.323 264.898 346.666 258.326L362.405 227.391L375.479 183.741C377.594 176.673 385.013 172.676 392.052 174.794C399.09 176.918 403.078 184.368 400.962 191.436L387.542 236.236C387.312 237.006 387.013 237.748 386.647 238.463L370.366 270.468C368.013 275.091 363.347 277.754 358.506 277.754V277.768Z" fill="#C6C6C6"/>
<path d="M416.739 489C407.889 489 400.362 482.197 399.589 473.181L387.946 338.223L384.135 376.308L383.959 376.921C383.172 385.433 385.2 428.933 387.668 466.978C388.285 476.518 381.091 484.757 371.59 485.377C362.104 486.01 353.885 478.772 353.268 469.232C353.254 469.014 351.837 447.114 350.718 424.5C348.691 383.384 349.274 374.102 350.108 370.091L361.256 258.626L361.67 257.155C362.843 252.994 364.979 246.879 369.875 241.82C375.205 236.311 382.562 233.505 390.598 233.88C397.392 234.091 403.889 237.836 408.961 244.496C413.057 249.869 415.572 256.447 416.061 263.032L433.929 470.192C434.749 479.718 427.731 488.108 418.244 488.932C417.735 488.979 417.234 489 416.739 489Z" fill="#5E5E5E"/>
<path d="M406.928 484.859C406.25 484.859 405.578 484.628 405.016 484.158L393.745 474.631C392.491 473.569 392.328 471.689 393.386 470.43C394.444 469.17 396.315 469.013 397.57 470.069L408.84 479.595C410.095 480.658 410.257 482.537 409.199 483.797C408.609 484.498 407.775 484.859 406.928 484.859Z" fill="#5E5E5E"/>
<path d="M365.116 484.341C364.709 484.341 364.295 484.26 363.902 484.076L344.454 475.278C342.962 474.604 342.297 472.84 342.969 471.335C343.64 469.837 345.396 469.163 346.895 469.844L366.343 478.642C367.835 479.316 368.499 481.08 367.828 482.585C367.333 483.688 366.255 484.341 365.123 484.341H365.116Z" fill="#5E5E5E"/>
<path d="M322.727 197.435C321.039 197.435 319.364 196.768 318.11 195.44L312.251 189.23C310.922 187.82 309.945 186.057 309.43 184.123C306.032 183.401 303.835 180.064 304.513 176.632C305.192 173.173 308.528 170.919 311.986 171.6C316.835 172.56 320.442 175.938 321.676 180.636L327.345 186.635C329.766 189.196 329.658 193.241 327.108 195.665C325.881 196.836 324.301 197.422 322.734 197.422L322.727 197.435Z" fill="#B26E3D"/>
<path d="M382.68 167.071C386.706 167.071 389.97 163.794 389.97 159.751C389.97 155.708 386.706 152.431 382.68 152.431C378.654 152.431 375.391 155.708 375.391 159.751C375.391 163.794 378.654 167.071 382.68 167.071Z" fill="#B26E3D"/>
<path d="M356.144 255.207C355.398 255.207 354.652 255.152 353.899 255.03C345.87 253.777 339.794 246.933 327.907 225.749C321.628 214.561 316.264 203.693 316.04 203.236C312.785 196.624 315.484 188.61 322.069 185.341C328.653 182.072 336.634 184.783 339.889 191.395C344.677 201.112 350.603 212.109 355.391 220.076C360.477 210.175 365.04 197.659 367.4 189.604C369.475 182.529 376.867 178.477 383.912 180.554C390.958 182.631 394.999 190.046 392.931 197.128C391.805 200.989 381.491 235.275 366.573 250.781C363.827 253.634 360.049 255.214 356.137 255.214L356.144 255.207Z" fill="#C6C6C6"/>
<path d="M365.681 201.038C365.681 201.038 365.763 174.447 384.824 173.228C403.886 172.009 407.805 195.672 409.562 222.869C411.671 255.582 364.203 237.489 364.203 237.489L365.688 201.045L365.681 201.038Z" fill="#C6C6C6"/>
</g>
<defs>
<clipPath id="clip0_249_94679">
<rect width="358" height="468" fill="white" transform="translate(76 21)"/>
</clipPath>
</defs>
</svg>
