<svg width="68" height="68" viewBox="0 0 68 68" fill="none" xmlns="http://www.w3.org/2000/svg">
<g clip-path="url(#clip0_289_998)">
<path fill-rule="evenodd" clip-rule="evenodd" d="M47.6299 42.62L47.7199 42.75C47.7348 42.7654 47.7527 42.7777 47.7724 42.7861C47.7922 42.7944 47.8134 42.7987 47.8349 42.7987C47.8563 42.7987 47.8776 42.7944 47.8973 42.7861C47.9171 42.7777 47.9349 42.7654 47.9499 42.75L52.1799 39.57C52.3081 39.4734 52.4643 39.4212 52.6249 39.4212C52.7854 39.4212 52.9416 39.4734 53.0699 39.57L57.2899 42.76C57.3212 42.7888 57.3623 42.8048 57.4049 42.8048C57.4475 42.8048 57.4885 42.7888 57.5199 42.76L57.6199 42.63C57.6487 42.5986 57.6647 42.5576 57.6647 42.515C57.6647 42.4724 57.6487 42.4314 57.6199 42.4L56.6899 41.7C56.5999 41.6301 56.527 41.5407 56.4768 41.4385C56.4265 41.3362 56.4002 41.2239 56.3999 41.11V38.87H55.9099V39.61C55.9103 39.7483 55.8721 39.8839 55.7994 40.0016C55.7267 40.1192 55.6225 40.2141 55.4986 40.2755C55.3747 40.337 55.2361 40.3624 55.0984 40.3491C54.9608 40.3357 54.8296 40.2841 54.7199 40.2L52.6499 38.65L47.6499 42.39C47.6315 42.4028 47.6159 42.4191 47.6039 42.438C47.5919 42.4569 47.5837 42.478 47.5799 42.5C47.5643 42.5385 47.5643 42.5815 47.5799 42.62H47.6299ZM55.4499 47.56H54.6399V45.33C54.6399 45.1337 54.5619 44.9455 54.4231 44.8067C54.2843 44.668 54.0961 44.59 53.8999 44.59H51.3499C51.1536 44.59 50.9654 44.668 50.8266 44.8067C50.6878 44.9455 50.6099 45.1337 50.6099 45.33V47.56H49.7899V43.25L52.6199 41.12L55.4499 43.25V47.56ZM53.1599 46.07H52.0899V47.56H53.1599V46.07ZM46.4399 43.51C46.181 43.1633 46.0695 42.7284 46.1299 42.3C46.1564 42.0842 46.2268 41.8761 46.3369 41.6887C46.447 41.5012 46.5943 41.3383 46.7699 41.21L51.8299 37.39C52.0582 37.2156 52.3376 37.1212 52.6249 37.1212C52.9122 37.1212 53.1915 37.2156 53.4199 37.39L54.4199 38.18C54.5104 37.9455 54.6695 37.7437 54.8764 37.601C55.0833 37.4582 55.3285 37.3812 55.5799 37.38H56.5799C56.907 37.3826 57.2198 37.5144 57.4502 37.7467C57.6806 37.979 57.8099 38.2928 57.8099 38.62V40.73L58.4399 41.21C58.7877 41.4742 59.0174 41.8648 59.0792 42.2972C59.141 42.7296 59.0298 43.169 58.7699 43.52L58.6699 43.65C58.4662 43.9123 58.1893 44.1083 57.8743 44.2133C57.5593 44.3183 57.2202 44.3276 56.8999 44.24V48C56.8827 48.2647 56.7678 48.5136 56.5775 48.6984C56.3871 48.8831 56.135 48.9906 55.8699 49H49.3799C49.1078 49.0006 48.8457 48.8975 48.647 48.7117C48.4482 48.526 48.3277 48.2715 48.3099 48V44.24C47.9898 44.3317 47.6494 44.3245 47.3335 44.2192C47.0176 44.1139 46.7409 43.9155 46.5399 43.65L46.4399 43.51ZM59.8599 59.88H45.9999C45.8036 59.88 45.6154 59.958 45.4766 60.0967C45.3378 60.2355 45.2599 60.4237 45.2599 60.62C45.2599 60.8162 45.3378 61.0045 45.4766 61.1432C45.6154 61.282 45.8036 61.36 45.9999 61.36H59.8599C60.0561 61.36 60.2443 61.282 60.3831 61.1432C60.5219 61.0045 60.5999 60.8162 60.5999 60.62C60.5999 60.4237 60.5219 60.2355 60.3831 60.0967C60.2443 59.958 60.0561 59.88 59.8599 59.88ZM59.8599 56.63H45.9999C45.9027 56.63 45.8065 56.6491 45.7167 56.6863C45.6269 56.7235 45.5453 56.778 45.4766 56.8467C45.4079 56.9154 45.3534 56.997 45.3162 57.0868C45.279 57.1766 45.2599 57.2728 45.2599 57.37C45.2599 57.4672 45.279 57.5634 45.3162 57.6532C45.3534 57.743 45.4079 57.8245 45.4766 57.8933C45.5453 57.962 45.6269 58.0165 45.7167 58.0537C45.8065 58.0909 45.9027 58.11 45.9999 58.11H59.8599C60.0561 58.11 60.2443 58.032 60.3831 57.8932C60.5219 57.7545 60.5999 57.5662 60.5999 57.37C60.5999 57.1737 60.5219 56.9855 60.3831 56.8467C60.2443 56.708 60.0561 56.63 59.8599 56.63ZM59.8599 53.38H45.9999C45.8036 53.38 45.6154 53.458 45.4766 53.5967C45.3378 53.7355 45.2599 53.9237 45.2599 54.12C45.2599 54.3162 45.3378 54.5045 45.4766 54.6432C45.6154 54.782 45.8036 54.86 45.9999 54.86H59.8599C60.0561 54.86 60.2443 54.782 60.3831 54.6432C60.5219 54.5045 60.5999 54.3162 60.5999 54.12C60.5999 53.9237 60.5219 53.7355 60.3831 53.5967C60.2443 53.458 60.0561 53.38 59.8599 53.38ZM59.8599 50.13H45.9999C45.8036 50.13 45.6154 50.208 45.4766 50.3467C45.3378 50.4855 45.2599 50.6737 45.2599 50.87C45.2599 51.0662 45.3378 51.2545 45.4766 51.3932C45.6154 51.532 45.8036 51.61 45.9999 51.61H59.8599C60.0561 51.61 60.2443 51.532 60.3831 51.3932C60.5219 51.2545 60.5999 51.0662 60.5999 50.87C60.5999 50.6737 60.5219 50.4855 60.3831 50.3467C60.2443 50.208 60.0561 50.13 59.8599 50.13ZM63.5199 35.33V63C63.5199 63.114 63.4746 63.2234 63.3939 63.304C63.3133 63.3847 63.2039 63.43 63.0899 63.43H42.3199V35.33C42.3224 35.2168 42.3685 35.1089 42.4486 35.0288C42.5287 34.9487 42.6366 34.9025 42.7499 34.9H63.0899C63.2031 34.9025 63.311 34.9487 63.3911 35.0288C63.4712 35.1089 63.5173 35.2168 63.5199 35.33ZM4.51986 63.39H40.8399V59H36.6399C36.4436 59 36.2554 58.922 36.1166 58.7833C35.9778 58.6445 35.8999 58.4562 35.8999 58.26V45.37H32.9999V45.55C33.0009 45.7393 32.9293 45.9218 32.7999 46.06L26.4999 52.63V58.23C26.4999 58.4263 26.4219 58.6145 26.2831 58.7533C26.1443 58.892 25.9561 58.97 25.7599 58.97C25.5636 58.97 25.3754 58.892 25.2366 58.7533C25.0978 58.6145 25.0199 58.4263 25.0199 58.23V52.63L18.7199 46.06C18.5904 45.9218 18.5188 45.7393 18.5199 45.55V45.37H15.9999V58.23C15.9999 58.4263 15.9219 58.6145 15.7831 58.7533C15.6443 58.892 15.4561 58.97 15.2599 58.97H10.3099C10.1127 58.97 9.9234 58.8924 9.78304 58.7539C9.64267 58.6154 9.56249 58.4272 9.55986 58.23V47C8.0078 47.968 6.72729 49.3147 5.83867 50.9135C4.95004 52.5123 4.48246 54.3108 4.47986 56.14L4.51986 63.39ZM11.0899 57.49V46.22C12.1891 45.7532 13.3585 45.4727 14.5499 45.39V57.49H11.0899ZM19.9999 42.21C21.756 43.2066 23.7406 43.7305 25.7599 43.7305C27.7791 43.7305 29.7637 43.2066 31.5199 42.21V45.21L25.7599 51.21L19.9999 45.21V42.21ZM25.7599 42.21C28.4681 42.2021 31.0636 41.1249 32.9814 39.2127C34.8992 37.3005 35.9841 34.7082 35.9999 32V28H15.4499V32C15.4604 34.7178 16.5468 37.3207 18.4714 39.2397C20.3959 41.1586 23.0021 42.2374 25.7199 42.24L25.7599 42.21ZM13.9999 32.88C13.9999 32.58 13.9999 32.28 13.9999 31.98V28.71H12.8399C12.5539 28.6902 12.2669 28.7294 11.9968 28.8252C11.7266 28.921 11.4791 29.0714 11.2695 29.2669C11.06 29.4625 10.8928 29.699 10.7786 29.9619C10.6643 30.2248 10.6054 30.5084 10.6054 30.795C10.6054 31.0816 10.6643 31.3652 10.7786 31.6281C10.8928 31.891 11.06 32.1275 11.2695 32.3231C11.4791 32.5186 11.7266 32.669 11.9968 32.7648C12.2669 32.8606 12.5539 32.8998 12.8399 32.88H13.9999ZM9.31986 26.56H42.1099V23.87L40.6999 22.47C40.6296 22.403 40.5738 22.3222 40.5359 22.2328C40.4981 22.1434 40.479 22.0471 40.4799 21.95C40.4826 19.9749 40.0881 18.0195 39.3199 16.2V18.84C39.3199 19.6701 38.9901 20.4662 38.4031 21.0532C37.8161 21.6402 37.02 21.97 36.1899 21.97C35.3597 21.97 34.5636 21.6402 33.9766 21.0532C33.3896 20.4662 33.0599 19.6701 33.0599 18.84V9.13999C32.1572 8.62277 31.2018 8.20372 30.2099 7.88999V14.33C30.2099 15.5235 29.7358 16.6681 28.8918 17.512C28.0479 18.3559 26.9033 18.83 25.7099 18.83C24.5164 18.83 23.3718 18.3559 22.5279 17.512C21.684 16.6681 21.2099 15.5235 21.2099 14.33V7.88999C20.2219 8.20565 19.2699 8.62464 18.3699 9.13999V18.84C18.3699 19.6701 18.0401 20.4662 17.4531 21.0532C16.8661 21.6402 16.07 21.97 15.2399 21.97C14.4097 21.97 13.6136 21.6402 13.0266 21.0532C12.4396 20.4662 12.1099 19.6701 12.1099 18.84V16.2C11.3521 18.0386 10.9746 20.0116 10.9999 22C11.0007 22.0971 10.9816 22.1934 10.9438 22.2828C10.9059 22.3722 10.8501 22.453 10.7799 22.52L9.36986 23.92V26.61L9.31986 26.56ZM13.5999 13.56C14.51 12.2567 15.6243 11.1086 16.8999 10.16V18.89C16.8999 19.3276 16.726 19.7473 16.4166 20.0567C16.1072 20.3662 15.6875 20.54 15.2499 20.54C14.8123 20.54 14.3926 20.3662 14.0831 20.0567C13.7737 19.7473 13.5999 19.3276 13.5999 18.89V13.56ZM22.7099 7.66999C22.7099 6.87434 23.0259 6.11128 23.5885 5.54867C24.1511 4.98606 24.9142 4.66999 25.7099 4.66999C26.5055 4.66999 27.2686 4.98606 27.8312 5.54867C28.3938 6.11128 28.7099 6.87434 28.7099 7.66999V14.38C28.7099 15.1756 28.3938 15.9387 27.8312 16.5013C27.2686 17.0639 26.5055 17.38 25.7099 17.38C24.9142 17.38 24.1511 17.0639 23.5885 16.5013C23.0259 15.9387 22.7099 15.1756 22.7099 14.38V7.66999ZM34.5399 10.16C35.8154 11.1086 36.9297 12.2567 37.8399 13.56V18.89C37.8399 19.3276 37.666 19.7473 37.3566 20.0567C37.0472 20.3662 36.6275 20.54 36.1899 20.54C35.7523 20.54 35.3326 20.3662 35.0231 20.0567C34.7137 19.7473 34.5399 19.3276 34.5399 18.89V10.16ZM40.6899 30.8C40.6872 30.2465 40.4662 29.7164 40.0748 29.325C39.6834 28.9337 39.1534 28.7126 38.5999 28.71H37.4699V32C37.485 32.2998 37.485 32.6002 37.4699 32.9H38.5999C39.1524 32.9 39.6825 32.6812 40.0742 32.2914C40.4659 31.9016 40.6872 31.3726 40.6899 30.82V30.8ZM40.8399 46.43V57.49H37.3799V45.43C38.5803 45.571 39.7493 45.9088 40.8399 46.43ZM64.9999 35.33V63C64.9999 63.5066 64.7986 63.9924 64.4404 64.3506C64.0822 64.7088 63.5964 64.91 63.0899 64.91H3.73986C3.63922 64.9101 3.53961 64.8898 3.44712 64.8501C3.35463 64.8104 3.2712 64.7523 3.20194 64.6793C3.13267 64.6063 3.07903 64.5199 3.04428 64.4255C3.00954 64.331 2.99442 64.2305 2.99986 64.13V56.13C3.00251 52.8819 4.29398 49.7676 6.59073 47.4709C8.88747 45.1741 12.0018 43.8826 15.2499 43.88H18.4799V41.22C16.2907 39.5113 14.7808 37.0798 14.2199 34.36H12.8399C12.0961 34.369 11.3682 34.1454 10.7577 33.7206C10.1472 33.2957 9.68459 32.6908 9.43456 31.9903C9.18454 31.2898 9.15956 30.5287 9.36309 29.8133C9.56663 29.0979 9.98853 28.464 10.5699 28H8.56986C8.3736 28 8.18538 27.922 8.0466 27.7833C7.90782 27.6445 7.82986 27.4563 7.82986 27.26V23.56C7.82718 23.4558 7.84625 23.3522 7.88585 23.2558C7.92545 23.1593 7.98471 23.0722 8.05986 23L9.47986 21.6C9.54494 18.4935 10.4993 15.4707 12.2299 12.89V12.82C12.4599 12.48 12.6999 12.15 12.9599 11.82C14.1241 10.3572 15.5313 9.10564 17.1199 8.11999C17.1701 8.07426 17.2276 8.0371 17.2899 8.00999C18.566 7.23597 19.9421 6.64043 21.3799 6.23999C21.6685 5.32857 22.2399 4.53276 23.0113 3.96794C23.7826 3.40312 24.7138 3.09863 25.6699 3.09863C26.6259 3.09863 27.5571 3.40312 28.3284 3.96794C29.0998 4.53276 29.6712 5.32857 29.9599 6.23999C31.4163 6.65063 32.8094 7.25967 34.0999 8.04999C34.1622 8.0771 34.2196 8.11426 34.2699 8.15999C35.8585 9.14564 37.2656 10.3972 38.4299 11.86C38.6899 12.18 38.9299 12.51 39.1599 12.86L39.2099 12.93C40.9528 15.5035 41.921 18.5229 41.9999 21.63L43.3799 23C43.5206 23.1405 43.5997 23.3312 43.5999 23.53V27.3C43.5972 27.4972 43.5171 27.6854 43.3767 27.8239C43.2363 27.9624 43.0471 28.04 42.8499 28.04H40.8499C41.4154 28.5081 41.8228 29.1392 42.0166 29.8472C42.2105 30.5553 42.1814 31.3059 41.9332 31.9968C41.6851 32.6877 41.23 33.2853 40.6299 33.7082C40.0298 34.131 39.314 34.3587 38.5799 34.36H37.2199C36.6661 37.0727 35.1714 39.5025 32.9999 41.22V43.88H36.2299C37.8258 43.8821 39.4058 44.1981 40.8799 44.81V35.33C40.8825 34.8242 41.0846 34.34 41.4422 33.9823C41.7998 33.6247 42.2841 33.4226 42.7899 33.42H63.0899C63.5956 33.4226 64.0799 33.6247 64.4375 33.9823C64.7952 34.34 64.9972 34.8242 64.9999 35.33ZM39.3199 23.92C39.3199 24.1163 39.2419 24.3045 39.1031 24.4433C38.9643 24.582 38.7761 24.66 38.5799 24.66H12.8599C12.6636 24.66 12.4754 24.582 12.3366 24.4433C12.1978 24.3045 12.1199 24.1163 12.1199 23.92C12.1199 23.7237 12.1978 23.5355 12.3366 23.3967C12.4754 23.258 12.6636 23.18 12.8599 23.18H38.5799C38.7761 23.18 38.9643 23.258 39.1031 23.3967C39.2419 23.5355 39.3199 23.7237 39.3199 23.92Z" fill="#00BFFF"/>
</g>
<defs>
<clipPath id="clip0_289_998">
<rect width="68" height="68" fill="white"/>
</clipPath>
</defs>
</svg>
