<svg width="68" height="54" viewBox="0 0 68 54" fill="none" xmlns="http://www.w3.org/2000/svg">
<path d="M66.6698 13.7501C66.5265 13.691 66.3687 13.6766 66.217 13.7087C66.0654 13.7409 65.9269 13.818 65.8198 13.9301L57.2198 22.9301V3.10008C57.2172 2.41225 56.9421 1.75349 56.4548 1.26806C55.9675 0.782625 55.3077 0.510071 54.6198 0.510076H29.6198C29.2768 0.504755 28.9362 0.567891 28.6179 0.695791C28.2996 0.823691 28.01 1.01379 27.766 1.25496C27.5221 1.49613 27.3286 1.78353 27.1971 2.10034C27.0655 2.41716 26.9985 2.75703 26.9998 3.10008V9.00008C26.5798 8.85008 26.1398 8.71008 25.6998 8.58008C25.4367 7.61757 24.8644 6.76827 24.0712 6.16294C23.2779 5.55762 22.3077 5.22984 21.3098 5.23008H21.0398C20.0626 5.23005 19.1115 5.54533 18.3278 6.12906C17.5441 6.71278 16.9697 7.53379 16.6898 8.47008C13.4812 9.28938 10.5607 10.978 8.24984 13.3501C5.85742 15.7953 4.1354 18.8157 3.24984 22.1201H2.67984C2.47563 22.1201 2.27977 22.2012 2.13537 22.3456C1.99097 22.49 1.90984 22.6859 1.90984 22.8901V27.0001C1.90781 27.114 1.93175 27.2268 1.97984 27.3301C1.6297 27.6322 1.3472 28.0048 1.15076 28.4235C0.954333 28.8422 0.848389 29.2977 0.839844 29.7601C0.850291 30.2443 0.968853 30.7202 1.18686 31.1527C1.40486 31.5853 1.7168 31.9636 2.09984 32.2601V37.8501L5.24984 38.5201L7.12984 43.0001L5.42984 45.7401L10.1798 50.3401L12.9998 48.7101L16.9998 50.3501L17.6698 53.4901H24.2898L25.2398 50.3601L29.5698 48.5601L31.5098 49.5601L29.0098 52.1501C28.907 52.261 28.8383 52.3992 28.8117 52.5481C28.7851 52.697 28.8018 52.8504 28.8598 52.9901C28.9204 53.1277 29.0198 53.2446 29.146 53.3263C29.2722 53.4081 29.4195 53.4511 29.5698 53.4501H66.3898C66.5933 53.4475 66.7876 53.3655 66.9315 53.2217C67.0753 53.0778 67.1573 52.8835 67.1599 52.6801V14.4701C67.1604 14.3146 67.1139 14.1627 67.0264 14.0341C66.939 13.9056 66.8147 13.8066 66.6698 13.7501ZM53.8498 40.7501C54.7419 40.7501 55.5976 40.3964 56.2293 39.7666C56.861 39.1367 57.2172 38.2821 57.2198 37.3901V34.3901L58.7198 32.8201V46.3601H45.7198L51.0998 40.7601L53.8498 40.7501ZM55.6798 37.3901C55.6772 37.8737 55.4832 38.3366 55.1403 38.6776C54.7974 39.0187 54.3335 39.2101 53.8498 39.2101H36.8498L37.1398 38.5101L38.9998 38.1301V38.3501H44.8998V31.6701H40.7498C40.9735 31.389 41.1461 31.0708 41.2598 30.7301H44.8998V24.0501H40.3498V23.1101H44.8998V16.4301H38.2198V20.4301C37.5706 18.6783 36.6858 17.0231 35.5898 15.5101H55.6798V37.3901ZM30.3698 34.3901C30.3698 36.785 29.4185 39.0818 27.725 40.7752C26.0316 42.4687 23.7347 43.4201 21.3398 43.4201C18.9449 43.4201 16.6481 42.4687 14.9547 40.7752C13.2612 39.0818 12.3098 36.785 12.3098 34.3901C12.3049 34.3135 12.3049 34.2367 12.3098 34.1601L21.0398 35.1601H21.2198L30.3598 34.1601L30.3698 34.3901ZM21.1398 33.6201L4.61984 31.7101C4.06757 31.7046 3.53607 31.4988 3.12408 31.1309C2.7121 30.7631 2.44764 30.2582 2.37984 29.7101C2.37984 28.6101 3.55984 27.7101 5.01984 27.7101H37.2598C38.7098 27.7101 39.8898 28.5901 39.8898 29.7101C39.8241 30.2591 39.5602 30.7652 39.1478 31.1334C38.7354 31.5016 38.2027 31.7067 37.6498 31.7101L21.1398 33.6201ZM39.7598 21.6201V18.0001H43.3598V21.6001L39.7598 21.6201ZM41.3798 29.2301C41.2286 28.508 40.8459 27.8549 40.2898 27.3701C40.3378 27.2703 40.3618 27.1607 40.3598 27.0501V25.6101H43.3598V29.2001L41.3798 29.2301ZM40.2998 33.2301H43.3598V36.8301H40.2998V33.2301ZM38.8098 23.6701V26.2701H33.0798V23.6701H38.8098ZM28.5598 3.10008C28.572 2.83878 28.6813 2.59144 28.8662 2.40648C29.0512 2.22151 29.2985 2.11225 29.5598 2.10008H54.5598C54.8309 2.09964 55.0918 2.20305 55.2889 2.38904C55.4861 2.57503 55.6045 2.82947 55.6198 3.10008V14.0001H34.3298C34.2009 13.8464 34.0641 13.6995 33.9198 13.5601C33.4498 13.0901 32.9798 12.6401 32.4898 12.2101H53.5698V5.93008H30.6698V10.8201C29.9933 10.3806 29.2885 9.98637 28.5598 9.64008V3.10008ZM32.2098 10.6401V7.47008H51.9998V10.6401H32.2098ZM18.0498 9.77008C18.0498 8.97443 18.3659 8.21136 18.9285 7.64876C19.4911 7.08615 20.2542 6.77008 21.0498 6.77008H21.3198C22.1155 6.77008 22.8786 7.08615 23.4412 7.64876C24.0038 8.21136 24.3198 8.97443 24.3198 9.77008V21.4801H17.9998V9.77008H18.0498ZM11.6698 12.4801V22.2701H13.2098V11.5001C14.255 10.9134 15.3617 10.4438 16.5098 10.1001V23.0001H25.8898V10.2201C27.0867 10.6007 28.2346 11.121 29.3098 11.7701V22.2501H30.8498V12.8301C33.879 15.1788 36.0848 18.428 37.1498 22.1101H32.3098C32.1064 22.1127 31.9121 22.1946 31.7682 22.3385C31.6244 22.4823 31.5424 22.6767 31.5398 22.8801V26.2501H10.7198V22.8801C10.7173 22.6767 10.6353 22.4823 10.4915 22.3385C10.3476 22.1946 10.1533 22.1127 9.94984 22.1101H4.85984C5.99794 18.2331 8.39381 14.8451 11.6698 12.4801ZM3.43984 26.2501V23.6501H9.17984V26.2501H3.43984ZM23.9998 49.2001L23.1598 51.9401H18.9998L18.4198 49.2201L12.9398 47.0001L10.4398 48.3801L7.43984 45.4501L8.91984 43.1001L6.34984 37.1801L3.63984 36.6001V33.0801C3.90499 33.1578 4.17582 33.2146 4.44984 33.2501L10.7798 33.9801C10.7798 34.1201 10.7798 34.2501 10.7798 34.3901C10.7798 37.1934 11.8935 39.8819 13.8757 41.8642C15.858 43.8465 18.5465 44.9601 21.3498 44.9601C24.1532 44.9601 26.8417 43.8465 28.824 41.8642C30.8062 39.8819 31.9198 37.1934 31.9198 34.3901C31.9198 34.2401 31.9198 34.0801 31.9198 33.9301L37.8398 33.2501C38.1601 33.2158 38.4754 33.1453 38.7798 33.0401V36.6001L35.9998 37.1801L33.6498 42.8701L35.1598 45.1901L32.1598 48.1901L29.6998 46.8401L23.9998 49.2001ZM35.3798 42.7001L36.1798 40.7601H39.9998L36.5198 44.4001L35.3798 42.7001ZM31.3798 51.9401L42.1798 40.7601H48.9298L43.3198 46.6101C43.2151 46.7177 43.1442 46.8537 43.1158 47.0012C43.0873 47.1486 43.1027 47.3012 43.1598 47.4401C43.2177 47.5803 43.3163 47.7001 43.4428 47.7838C43.5694 47.8676 43.7181 47.9116 43.8698 47.9101H59.4898C59.695 47.9074 59.8908 47.8241 60.0349 47.6781C60.1791 47.5321 60.2599 47.3352 60.2598 47.1301V30.8901C60.2604 30.7346 60.2139 30.5827 60.1264 30.4541C60.039 30.3256 59.9146 30.2266 59.7698 30.1701C59.6285 30.1089 59.4716 30.0934 59.321 30.1257C59.1705 30.158 59.0337 30.2364 58.9298 30.3501L57.1998 32.1301V25.1301L65.5898 16.4001V24.8101H62.7698V26.3501H65.5898V29.0001H62.7698V30.5001H65.5898V32.7901H61.4698V34.3301H65.6199V36.3301H62.7898V37.8801H65.6199V40.5201H62.7898V42.0601H65.6199V44.3501H61.4698V45.9001H65.6199V51.9001H31.4198L31.3798 51.9401Z" fill="#00BFFF"/>
<path d="M43.3398 8.25H44.4898V9.4H43.3398V8.25Z" fill="#00BFFF"/>
<path d="M48.52 8.25H49.66V9.4H48.52V8.25Z" fill="#00BFFF"/>
<path d="M45.8501 8.25H47.0001V9.4H45.8501V8.25Z" fill="#00BFFF"/>
<path d="M53.7899 16.4502H47.1099V23.1302H53.7899V16.4502ZM52.2499 21.5902H48.6499V18.0002H52.2499V21.5902Z" fill="#00BFFF"/>
<path d="M53.7899 24.0601H47.1099V30.7401H53.7899V24.0601ZM52.2499 29.2001H48.6499V25.6101H52.2499V29.2001Z" fill="#00BFFF"/>
<path d="M53.7899 31.6702H47.1099V38.3502H53.7899V31.6702ZM52.2499 36.8102H48.6499V33.2102H52.2499V36.8102Z" fill="#00BFFF"/>
</svg>
