<svg width="64" height="58" viewBox="0 0 64 58" fill="none" xmlns="http://www.w3.org/2000/svg">
<path fill-rule="evenodd" clip-rule="evenodd" d="M10.3398 24.5001C8.82344 24.4556 7.38661 23.8117 6.34434 22.7094C5.30206 21.6071 4.73943 20.1366 4.77979 18.6201C4.73043 18.4699 4.71737 18.3101 4.74171 18.1539C4.76604 17.9977 4.82707 17.8495 4.91978 17.7214C5.01249 17.5934 5.13424 17.4891 5.27504 17.4172C5.41585 17.3453 5.57169 17.3078 5.72979 17.3078C5.88789 17.3078 6.04373 17.3453 6.18454 17.4172C6.32534 17.4891 6.4471 17.5934 6.53981 17.7214C6.63252 17.8495 6.69354 17.9977 6.71788 18.1539C6.74221 18.3101 6.72916 18.4699 6.67979 18.6201C6.63637 19.6354 6.99722 20.6266 7.68326 21.3764C8.3693 22.1261 9.32459 22.5734 10.3398 22.6201C10.5917 22.6201 10.8334 22.7202 11.0115 22.8983C11.1897 23.0765 11.2898 23.3181 11.2898 23.5701C11.2898 23.822 11.1897 24.0637 11.0115 24.2418C10.8334 24.42 10.5917 24.5201 10.3398 24.5201V24.5001ZM2.49979 18.6201C2.47857 19.6707 2.66454 20.7152 3.04709 21.694C3.42964 22.6727 4.00127 23.5665 4.72932 24.3243C5.45737 25.082 6.32759 25.6889 7.29025 26.1103C8.25291 26.5317 9.28915 26.7593 10.3398 26.7801C11.3904 26.7593 12.4267 26.5317 13.3893 26.1103C14.352 25.6889 15.2222 25.082 15.9503 24.3243C16.6783 23.5665 17.2499 22.6727 17.6325 21.694C18.015 20.7152 18.201 19.6707 18.1798 18.6201C18.1798 15.8101 16.1798 13.0301 14.1298 10.0901C12.6821 8.18082 11.4134 6.1422 10.3398 4.00008C9.26729 6.14911 7.99857 8.19446 6.54979 10.1101C4.46979 13.0001 2.49979 15.8101 2.49979 18.6201ZM20.0798 18.6201C20.0798 15.2001 17.9398 12.1901 15.6798 9.00008C13.9098 6.49008 12.0798 3.90008 11.2498 1.00008C11.1949 0.801121 11.0761 0.625754 10.9116 0.50105C10.7471 0.376346 10.5462 0.309238 10.3398 0.310084C10.1341 0.316442 9.93533 0.386119 9.77068 0.509607C9.60603 0.633095 9.48349 0.804378 9.41979 1.00008C8.59979 3.90008 6.76979 6.49008 4.99979 9.00008C2.72979 12.1901 0.599791 15.2001 0.599791 18.6201C0.559674 21.2451 1.56277 23.7787 3.38888 25.6648C5.215 27.5509 7.71489 28.6354 10.3398 28.6801C12.9647 28.6354 15.4646 27.5509 17.2907 25.6648C19.1168 23.7787 20.1199 21.2451 20.0798 18.6201ZM61.4698 19.0001C61.3598 20.4001 60.7098 24.7501 56.9898 26.5701C56.9898 24.6701 56.3898 22.2401 53.4798 19.6501C53.3854 19.5648 53.2747 19.4996 53.1544 19.4583C53.0341 19.417 52.9066 19.4006 52.7798 19.4101C52.5258 19.4319 52.2897 19.55 52.1198 19.7401C50.2798 21.9201 49.0598 23.6701 49.5798 26.6101C47.869 26.084 46.3945 24.979 45.4092 23.4847C44.4239 21.9904 43.9893 20.1998 44.1798 18.4201C44.3658 16.1224 45.4122 13.9796 47.1098 12.4201C47.0703 12.7519 47.0536 13.086 47.0598 13.4201C47.141 14.5754 47.6725 15.6526 48.5398 16.4201C49.4318 17.2472 50.614 17.6892 51.8298 17.6501C52.7609 17.6258 53.6617 17.3138 54.4084 16.7569C55.155 16.2 55.711 15.4256 55.9998 14.5401C56.245 13.6074 56.2546 12.6283 56.0276 11.691C55.8007 10.7536 55.3444 9.88739 54.6998 9.17008C54.1565 8.68169 53.7238 8.08289 53.4306 7.41375C53.1374 6.74461 52.9905 6.02057 52.9998 5.29008C53.0532 4.74036 53.2237 4.20845 53.4998 3.73008C53.8969 5.02648 54.5498 6.23017 55.4198 7.27008C55.9298 7.92008 56.4198 8.56008 56.9798 9.18008C59.4398 12.1301 61.7598 14.9201 61.4398 18.9901L61.4698 19.0001ZM58.4698 8.00008C57.9598 7.40008 57.4698 6.77008 56.9498 6.14008C55.4898 4.26008 54.9498 2.77008 55.3498 1.42008C55.4047 1.21893 55.3919 1.0053 55.3133 0.812144C55.2348 0.618988 55.0949 0.457037 54.9152 0.351268C54.7355 0.245498 54.526 0.201786 54.319 0.226873C54.112 0.25196 53.919 0.344452 53.7698 0.490084C52.3753 1.67118 51.4524 3.31463 51.1698 5.12008C51.1304 6.11247 51.3026 7.10187 51.6751 8.02256C52.0475 8.94326 52.6115 9.77416 53.3298 10.4601C53.7525 10.9465 54.0515 11.5278 54.2012 12.1546C54.351 12.7814 54.347 13.4351 54.1898 14.0601C54.0147 14.5665 53.6892 15.0074 53.2567 15.3237C52.8242 15.64 52.3054 15.8167 51.7698 15.8301C51.058 15.8422 50.3693 15.5768 49.8498 15.0901C49.6032 14.8788 49.401 14.6206 49.2551 14.3304C49.1092 14.0403 49.0224 13.7241 48.9998 13.4001C49.0259 12.5107 49.1739 11.6292 49.4398 10.7801C49.5698 10.2901 49.6898 9.78008 49.8098 9.26008C49.8474 9.04239 49.8119 8.81835 49.7088 8.62297C49.6057 8.42759 49.4408 8.27185 49.2398 8.18008C49.0337 8.10446 48.8085 8.09874 48.5989 8.1638C48.3892 8.22886 48.2068 8.36109 48.0798 8.54008C47.5445 9.30185 46.9312 10.0057 46.2498 10.6401C44.0206 12.5558 42.6134 15.2555 42.3198 18.1801C42.0477 20.5119 42.646 22.8621 43.9998 24.7801C44.789 25.871 45.7933 26.7887 46.9508 27.4767C48.1082 28.1646 49.3943 28.6082 50.7298 28.7801C50.884 28.7846 51.0371 28.7534 51.1773 28.6889C51.3174 28.6244 51.4407 28.5283 51.5375 28.4083C51.6344 28.2882 51.7021 28.1473 51.7355 27.9967C51.7688 27.8461 51.7669 27.6898 51.7298 27.5401C50.8598 24.9401 51.3398 23.6401 52.8698 21.7001C53.6817 22.4913 54.2978 23.461 54.6693 24.532C55.0408 25.6031 55.1574 26.7461 55.0098 27.8701C55.0066 28.0204 55.0373 28.1694 55.0996 28.3062C55.1619 28.443 55.2543 28.5639 55.3698 28.6601C55.5401 28.7879 55.7468 28.8579 55.9598 28.8601C56.0461 28.8705 56.1334 28.8705 56.2198 28.8601C62.2198 27.1401 63.1698 20.9801 63.3098 19.1301C63.6998 14.2901 61.0098 11.0701 58.4198 7.95008L58.4698 8.00008ZM52.3898 44.0001C52.3911 44.0311 52.3862 44.0621 52.3752 44.0912C52.3643 44.1202 52.3476 44.1468 52.3261 44.1692C52.3046 44.1917 52.2788 44.2095 52.2502 44.2217C52.2216 44.2339 52.1909 44.2401 52.1598 44.2401H10.0498C9.98614 44.2401 9.92509 44.2148 9.88009 44.1698C9.83508 44.1248 9.80979 44.0637 9.80979 44.0001V42.5201C9.80976 42.489 9.81603 42.4583 9.8282 42.4297C9.84038 42.4011 9.85822 42.3753 9.88065 42.3538C9.90308 42.3323 9.92963 42.3156 9.9587 42.3046C9.98777 42.2937 10.0188 42.2887 10.0498 42.2901H52.1598C52.2208 42.2901 52.2793 42.3143 52.3224 42.3574C52.3656 42.4006 52.3898 42.4591 52.3898 42.5201V44.0001ZM47.3198 47.9001C47.3198 48.1653 47.2144 48.4197 47.0269 48.6072C46.8394 48.7947 46.585 48.9001 46.3198 48.9001H44.7598C44.5033 48.9129 44.2616 49.0239 44.0848 49.2101C43.9079 49.3962 43.8095 49.6433 43.8098 49.9001V55.3701C43.8072 55.5311 43.7421 55.6847 43.6283 55.7986C43.5144 55.9124 43.3608 55.9775 43.1998 55.9801H42.4198C42.2588 55.9775 42.1051 55.9124 41.9913 55.7986C41.8775 55.6847 41.8124 55.5311 41.8098 55.3701V49.8401C41.8098 49.5749 41.7044 49.3205 41.5169 49.133C41.3294 48.9454 41.075 48.8401 40.8098 48.8401H39.2798C39.0146 48.8401 38.7602 48.7347 38.5727 48.5472C38.3851 48.3597 38.2798 48.1053 38.2798 47.8401V46.1501H47.2798V47.9101L47.3198 47.9001ZM23.9098 47.9001C23.9098 48.1653 23.8044 48.4197 23.6169 48.6072C23.4294 48.7947 23.175 48.9001 22.9098 48.9001H21.3498C21.0846 48.9001 20.8302 49.0054 20.6427 49.193C20.4551 49.3805 20.3498 49.6349 20.3498 49.9001V55.3701C20.3472 55.5311 20.2821 55.6847 20.1683 55.7986C20.0544 55.9124 19.9008 55.9775 19.7398 55.9801H18.9998C18.8388 55.9775 18.6852 55.9124 18.5713 55.7986C18.4575 55.6847 18.3924 55.5311 18.3898 55.3701V49.8401C18.3901 49.5833 18.2916 49.3363 18.1148 49.1501C17.9379 48.9639 17.6962 48.8529 17.4398 48.8401H15.8598C15.5946 48.8401 15.3402 48.7347 15.1527 48.5472C14.9651 48.3597 14.8598 48.1053 14.8598 47.8401V46.1501H23.8598V47.9101L23.9098 47.9001ZM36.3698 12.1001L37.0598 15.7801L31.0598 19.6701L25.0598 15.7801L25.7398 12.1001H36.3698ZM21.6598 9.73008V7.56008C21.6623 7.43623 21.7127 7.31817 21.8003 7.23057C21.8879 7.14298 22.0059 7.09264 22.1298 7.09008H40.0698C40.1944 7.09008 40.314 7.1396 40.4021 7.22774C40.4903 7.31589 40.5398 7.43543 40.5398 7.56008V9.73008C40.5372 9.85393 40.4869 9.972 40.3993 10.0596C40.3117 10.1472 40.1936 10.1975 40.0698 10.2001H22.1298C22.0059 10.1975 21.8879 10.1472 21.8003 10.0596C21.7127 9.972 21.6623 9.85393 21.6598 9.73008ZM31.0998 34.2001L39.8198 40.3801H22.3898L31.0998 34.2001ZM29.4598 33.0001L22.7998 28.3101L20.7998 39.2001L29.4598 33.0001ZM23.4598 24.6301L29.3298 20.7801L24.7398 17.7801L23.4598 24.6301ZM39.3998 28.3101L32.7498 33.0001L41.4298 39.1701L39.3998 28.3101ZM32.8398 20.8101L38.7198 24.6601L37.4298 17.8001L32.8398 20.8101ZM38.3698 26.7101L31.0998 31.8701L23.8298 26.7101L31.0998 22.0001L38.3698 26.7101ZM52.1598 40.3801H43.5898L38.2998 12.1001H40.0698C40.6984 12.1001 41.3012 11.8504 41.7456 11.4059C42.1901 10.9615 42.4398 10.3586 42.4398 9.73008V7.56008C42.4398 6.9306 42.1904 6.32675 41.7462 5.8807C41.3021 5.43465 40.6993 5.18273 40.0698 5.18008H22.1298C21.5003 5.18273 20.8975 5.43465 20.4533 5.8807C20.0092 6.32675 19.7598 6.9306 19.7598 7.56008V9.73008C19.7598 10.3586 20.0095 10.9615 20.4539 11.4059C20.8984 11.8504 21.5012 12.1001 22.1298 12.1001H23.8998L18.6098 40.3801H10.0498C9.48223 40.3801 8.93791 40.6055 8.53658 41.0069C8.13526 41.4082 7.90979 41.9525 7.90979 42.5201V44.0001C7.90979 44.5676 8.13526 45.112 8.53658 45.5133C8.93791 45.9146 9.48223 46.1401 10.0498 46.1401H12.9998V47.9001C12.9998 48.6648 13.3029 49.3984 13.8427 49.9401C14.3825 50.4818 15.115 50.7874 15.8798 50.7901H16.5098V55.3001C16.5097 55.9633 16.7711 56.5997 17.2372 57.0715C17.7034 57.5432 18.3367 57.8122 18.9998 57.8201H19.7798C20.4464 57.8201 21.0859 57.556 21.5582 57.0855C22.0305 56.6151 22.2971 55.9767 22.2998 55.3101V50.8001H22.9198C23.6855 50.7974 24.419 50.4921 24.9604 49.9507C25.5018 49.4093 25.8072 48.6757 25.8098 47.9101V46.1501H36.3898V47.9101C36.3924 48.6757 36.6978 49.4093 37.2392 49.9507C37.7806 50.4921 38.5141 50.7974 39.2798 50.8001H39.9098V55.3101C39.9098 55.9758 40.1742 56.6142 40.645 57.0849C41.1157 57.5556 41.7541 57.8201 42.4198 57.8201H43.1998C43.8655 57.8201 44.5039 57.5556 44.9746 57.0849C45.4453 56.6142 45.7098 55.9758 45.7098 55.3101V50.8001H46.3398C47.1045 50.7974 47.8371 50.4918 48.3769 49.9501C48.9167 49.4084 49.2198 48.6748 49.2198 47.9101V46.1501H52.1598C52.4417 46.1501 52.7208 46.0944 52.981 45.9862C53.2413 45.8781 53.4777 45.7195 53.6765 45.5198C53.8754 45.32 54.0328 45.0829 54.1398 44.8221C54.2467 44.5613 54.3011 44.282 54.2998 44.0001V42.5201C54.2998 41.9525 54.0743 41.4082 53.673 41.0069C53.2717 40.6055 52.7274 40.3801 52.1598 40.3801Z" fill="#00BFFF"/>
</svg>
