<svg width="62" height="62" viewBox="0 0 62 62" fill="none" xmlns="http://www.w3.org/2000/svg">
<path d="M42.6899 52.23C42.6873 52.0063 42.5966 51.7927 42.4374 51.6354C42.2783 51.4782 42.0636 51.39 41.8399 51.39H33.1099C32.4337 50.4748 31.6701 49.6275 30.8299 48.86C28.5892 46.7999 25.8653 45.3382 22.9099 44.61C24.3477 43.8276 25.5473 42.6711 26.3817 41.2628C27.2161 39.8545 27.6543 38.2469 27.6499 36.61C27.6462 36.2357 27.6228 35.8619 27.5799 35.49L28.2899 35.24C28.4515 35.1776 28.5904 35.0678 28.6886 34.925C28.7867 34.7823 28.8395 34.6132 28.8399 34.44V33.75C28.8393 33.6023 28.8003 33.4573 28.7267 33.3293C28.653 33.2013 28.5473 33.0947 28.4199 33.02V32.84C28.4172 31.0573 27.9314 29.3088 27.0139 27.7803C26.0965 26.2518 24.7819 25.0007 23.2099 24.16C22.6136 23.8322 21.9831 23.5707 21.3299 23.38C21.3248 23.1933 21.2569 23.0137 21.1372 22.8703C21.0174 22.727 20.8528 22.6282 20.6699 22.59C19.2848 22.27 17.845 22.27 16.4599 22.59C16.277 22.6282 16.1124 22.727 15.9926 22.8703C15.8729 23.0137 15.805 23.1933 15.7999 23.38C13.766 23.9985 11.9822 25.249 10.7073 26.9501C9.43238 28.6512 8.73273 30.7143 8.7099 32.84V33.02C8.58251 33.0947 8.47678 33.2013 8.40313 33.3293C8.32949 33.4573 8.29046 33.6023 8.2899 33.75V34.44C8.29034 34.6132 8.34308 34.7823 8.44122 34.925C8.53936 35.0678 8.67832 35.1776 8.8399 35.24L9.5599 35.49C9.50875 35.8612 9.48203 36.2353 9.4799 36.61C9.47551 38.2469 9.9137 39.8545 10.7481 41.2628C11.5825 42.6711 12.7821 43.8276 14.2199 44.61C10.5521 45.5171 7.25891 47.5463 4.79946 50.4144C2.34001 53.2826 0.836952 56.8468 0.499901 60.61C0.49171 60.727 0.507556 60.8445 0.546462 60.9552C0.585369 61.0659 0.646514 61.1675 0.726135 61.2536C0.805756 61.3398 0.902169 61.4088 1.00944 61.4563C1.11671 61.5038 1.23258 61.5289 1.3499 61.53H12.8599C13.0853 61.53 13.3015 61.4404 13.4609 61.281C13.6203 61.1216 13.7099 60.9054 13.7099 60.68C13.7099 60.4546 13.6203 60.2384 13.4609 60.079C13.3015 59.9196 13.0853 59.83 12.8599 59.83H7.3299V50.17C8.16234 49.4123 9.07044 48.7421 10.0399 48.17V52.12C10.0399 52.3437 10.1281 52.5584 10.2853 52.7175C10.4426 52.8767 10.6562 52.9674 10.8799 52.97H26.2499C26.4753 52.97 26.6915 52.8804 26.8509 52.721C27.0103 52.5616 27.0999 52.3454 27.0999 52.12V48.13C28.0646 48.7047 28.9691 49.3747 29.7999 50.13V59.8H16.1799C15.9545 59.8 15.7383 59.8896 15.5789 60.049C15.4195 60.2084 15.3299 60.4246 15.3299 60.65C15.3299 60.8754 15.4195 61.0916 15.5789 61.251C15.7383 61.4104 15.9545 61.5 16.1799 61.5H35.7799C35.8972 61.4989 36.0131 61.4739 36.1204 61.4263C36.2276 61.3788 36.324 61.3098 36.4037 61.2236C36.4833 61.1375 36.5444 61.0359 36.5833 60.9252C36.6222 60.8145 36.6381 60.697 36.6299 60.58C36.3907 57.934 35.5712 55.3733 34.2299 53.08H41.8399C42.0653 53.08 42.2815 52.9904 42.4409 52.831C42.6003 52.6716 42.6899 52.4554 42.6899 52.23ZM15.6899 25.23L15.5199 29.87C15.5159 29.9811 15.534 30.092 15.5732 30.1961C15.6123 30.3002 15.6718 30.3954 15.7481 30.4764C15.8244 30.5573 15.916 30.6223 16.0176 30.6675C16.1191 30.7128 16.2287 30.7374 16.3399 30.74C16.4506 30.7454 16.5612 30.7285 16.6652 30.6905C16.7692 30.6524 16.8646 30.5939 16.9457 30.5184C17.0268 30.443 17.0919 30.352 17.1373 30.2509C17.1827 30.1499 17.2074 30.0408 17.2099 29.93L17.4299 24.14C18.1565 24.0396 18.8934 24.0396 19.6199 24.14L19.8399 29.93C19.8451 30.1484 19.9363 30.3559 20.0935 30.5075C20.2508 30.6592 20.4615 30.7427 20.6799 30.74C20.7902 30.7361 20.8987 30.7105 20.9992 30.6647C21.0996 30.6189 21.19 30.5537 21.2652 30.4729C21.3405 30.3921 21.399 30.2973 21.4376 30.1938C21.4761 30.0904 21.4939 29.9803 21.4899 29.87L21.3199 25.23C21.6631 25.361 21.9971 25.5147 22.3199 25.69C23.6227 26.386 24.7124 27.4222 25.4731 28.6883C26.2338 29.9544 26.637 31.403 26.6399 32.88V32.95H10.3999V32.88C10.4118 31.2158 10.9275 29.5942 11.8789 28.2286C12.8303 26.8631 14.1728 25.8177 15.7299 25.23H15.6899ZM24.8699 34.64C22.8241 35.3254 20.6869 35.6996 18.5299 35.75C16.3696 35.7005 14.2289 35.3263 12.1799 34.64H24.8699ZM11.1399 36.64C11.1399 36.46 11.1399 36.27 11.1399 36.09C13.5068 36.9235 15.9911 37.3758 18.4999 37.43C21.0087 37.3758 23.493 36.9235 25.8599 36.09C25.8599 36.27 25.8599 36.46 25.8599 36.64C25.8964 37.6327 25.7325 38.6225 25.3778 39.5504C25.0231 40.4783 24.485 41.3251 23.7956 42.0403C23.1063 42.7555 22.2798 43.3244 21.3656 43.713C20.4514 44.1015 19.4683 44.3018 18.4749 44.3018C17.4816 44.3018 16.4984 44.1015 15.5842 43.713C14.67 43.3244 13.8435 42.7555 13.1542 42.0403C12.4648 41.3251 11.9267 40.4783 11.572 39.5504C11.2173 38.6225 11.0534 37.6327 11.0899 36.64H11.1399ZM2.2999 59.81C2.70894 56.9588 3.86082 54.2653 5.6399 52V59.8L2.2999 59.81ZM25.3999 51.24H11.7299V47.24C13.88 46.2776 16.2092 45.7801 18.5649 45.7801C20.9206 45.7801 23.2498 46.2776 25.3999 47.24V51.24ZM31.4899 59.81V52C31.6299 52.17 31.7599 52.35 31.8899 52.52C31.9365 52.6564 32.0195 52.7774 32.1299 52.87C33.5513 54.9414 34.4753 57.313 34.8299 59.8L31.4899 59.81ZM18.5699 20.41C18.7936 20.4074 19.0072 20.3167 19.1645 20.1575C19.3217 19.9984 19.4099 19.7837 19.4099 19.56V2.19H44.7899C45.0931 2.19139 45.3925 2.25719 45.6684 2.38305C45.9442 2.5089 46.1901 2.69192 46.3899 2.92L46.4699 3C46.9475 3.48901 47.2134 4.14644 47.2099 4.83V11.7C47.2099 11.9254 47.2995 12.1416 47.4589 12.301C47.6183 12.4604 47.8345 12.55 48.0599 12.55H54.9199C55.6035 12.5465 56.2609 12.8124 56.7499 13.29L56.8299 13.37C57.0567 13.5703 57.2381 13.8165 57.3623 14.0924C57.4864 14.3683 57.5504 14.6675 57.5499 14.97V29.63C57.5499 29.8554 57.6395 30.0716 57.7989 30.231C57.9583 30.3904 58.1745 30.48 58.3999 30.48C58.6253 30.48 58.8415 30.3904 59.0009 30.231C59.1603 30.0716 59.2499 29.8554 59.2499 29.63V15C59.2494 14.4659 59.138 13.9377 58.9228 13.4489C58.7077 12.96 58.3934 12.5211 57.9999 12.16L47.6099 1.73C47.2475 1.34494 46.8107 1.0374 46.326 0.825983C45.8413 0.614567 45.3187 0.503671 44.7899 0.5H18.5699C18.4583 0.5 18.3477 0.521986 18.2446 0.564703C18.1415 0.607419 18.0478 0.67003 17.9689 0.748959C17.8899 0.827889 17.8273 0.921592 17.7846 1.02472C17.7419 1.12785 17.7199 1.23838 17.7199 1.35V19.56C17.7199 19.6716 17.7419 19.7822 17.7846 19.8853C17.8273 19.9884 17.8899 20.0821 17.9689 20.161C18.0478 20.24 18.1415 20.3026 18.2446 20.3453C18.3477 20.388 18.4583 20.41 18.5699 20.41ZM48.9199 10.85V5.44L54.3299 10.85H48.9199ZM44.7699 43.94C44.8886 43.9271 45.0087 43.9393 45.1223 43.9759C45.236 44.0124 45.3406 44.0725 45.4295 44.1522C45.5184 44.232 45.5895 44.3295 45.6381 44.4385C45.6868 44.5476 45.712 44.6656 45.712 44.785C45.712 44.9044 45.6868 45.0224 45.6381 45.1315C45.5895 45.2405 45.5184 45.338 45.4295 45.4178C45.3406 45.4975 45.236 45.5576 45.1223 45.5941C45.0087 45.6307 44.8886 45.6429 44.7699 45.63H31.9999C31.7916 45.6073 31.5991 45.5085 31.4592 45.3526C31.3193 45.1966 31.242 44.9945 31.242 44.785C31.242 44.5755 31.3193 44.3734 31.4592 44.2174C31.5991 44.0615 31.7916 43.9627 31.9999 43.94H44.7699ZM51.3099 33.64H31.9999C31.7745 33.64 31.5583 33.5504 31.3989 33.391C31.2395 33.2316 31.1499 33.0154 31.1499 32.79C31.1499 32.5646 31.2395 32.3484 31.3989 32.189C31.5583 32.0296 31.7745 31.94 31.9999 31.94H51.3099C51.5353 31.94 51.7515 32.0296 51.9109 32.189C52.0703 32.3484 52.1599 32.5646 52.1599 32.79C52.1599 33.0154 52.0703 33.2316 51.9109 33.391C51.7515 33.5504 51.5353 33.64 51.3099 33.64ZM47.5899 39.64H31.9999C31.7771 39.64 31.5635 39.5515 31.4059 39.394C31.2484 39.2364 31.1599 39.0228 31.1599 38.8C31.1599 38.5763 31.2481 38.3616 31.4053 38.2025C31.5626 38.0433 31.7762 37.9526 31.9999 37.95H47.5899C47.8136 37.9526 48.0272 38.0433 48.1845 38.2025C48.3417 38.3616 48.4299 38.5763 48.4299 38.8C48.4273 39.021 48.3376 39.2321 48.1804 39.3875C48.0231 39.5429 47.811 39.63 47.5899 39.63V39.64ZM52.1599 20.8C52.1599 20.9116 52.1379 21.0222 52.0952 21.1253C52.0525 21.2284 51.9899 21.3221 51.9109 21.401C51.832 21.48 51.7383 21.5426 51.6352 21.5853C51.5321 21.628 51.4215 21.65 51.3099 21.65H25.6799C25.5612 21.6629 25.4411 21.6507 25.3275 21.6141C25.2138 21.5776 25.1092 21.5175 25.0203 21.4378C24.9314 21.358 24.8603 21.2605 24.8117 21.1515C24.763 21.0424 24.7378 20.9244 24.7378 20.805C24.7378 20.6856 24.763 20.5676 24.8117 20.4585C24.8603 20.3495 24.9314 20.252 25.0203 20.1722C25.1092 20.0925 25.2138 20.0324 25.3275 19.9959C25.4411 19.9593 25.5612 19.9471 25.6799 19.96H51.3099C51.5319 19.9599 51.7451 20.0467 51.904 20.2018C52.0628 20.357 52.1547 20.5681 52.1599 20.79V20.8ZM52.1599 26.8C52.1599 26.9116 52.1379 27.0222 52.0952 27.1253C52.0525 27.2284 51.9899 27.3221 51.9109 27.401C51.832 27.48 51.7383 27.5426 51.6352 27.5853C51.5321 27.628 51.4215 27.65 51.3099 27.65H31.9999C31.7745 27.65 31.5583 27.5604 31.3989 27.401C31.2395 27.2416 31.1499 27.0254 31.1499 26.8C31.1499 26.5746 31.2395 26.3584 31.3989 26.199C31.5583 26.0396 31.7745 25.95 31.9999 25.95H51.3099C51.5336 25.95 51.7483 26.0382 51.9074 26.1954C52.0666 26.3527 52.1573 26.5663 52.1599 26.79V26.8ZM37.0699 14V9.64H26.5299V14H30.1399C30.2586 13.9871 30.3787 13.9993 30.4923 14.0359C30.606 14.0724 30.7106 14.1325 30.7995 14.2122C30.8884 14.292 30.9595 14.3895 31.0081 14.4985C31.0568 14.6076 31.082 14.7256 31.082 14.845C31.082 14.9644 31.0568 15.0824 31.0081 15.1915C30.9595 15.3005 30.8884 15.398 30.7995 15.4778C30.7106 15.5575 30.606 15.6176 30.4923 15.6541C30.3787 15.6907 30.2586 15.7029 30.1399 15.69H25.6799C25.4562 15.69 25.2415 15.6018 25.0824 15.4446C24.9232 15.2873 24.8325 15.0737 24.8299 14.85V8.85C24.8299 8.62457 24.9195 8.40837 25.0789 8.24896C25.2383 8.08955 25.4545 8 25.6799 8H37.9099C38.1353 8 38.3515 8.08955 38.5109 8.24896C38.6703 8.40837 38.7599 8.62457 38.7599 8.85V14.85C38.7573 15.0737 38.6666 15.2873 38.5074 15.4446C38.3483 15.6018 38.1336 15.69 37.9099 15.69H33.4499C33.3312 15.7029 33.2111 15.6907 33.0975 15.6541C32.9838 15.6176 32.8792 15.5575 32.7903 15.4778C32.7014 15.398 32.6303 15.3005 32.5817 15.1915C32.533 15.0824 32.5078 14.9644 32.5078 14.845C32.5078 14.7256 32.533 14.6076 32.5817 14.4985C32.6303 14.3895 32.7014 14.292 32.7903 14.2122C32.8792 14.1325 32.9838 14.0724 33.0975 14.0359C33.2111 13.9993 33.3312 13.9871 33.4499 14H37.0699ZM61.3799 34.6C61.1972 33.913 60.8147 33.2957 60.2809 32.8263C59.747 32.3569 59.0857 32.0566 58.381 31.9634C57.6762 31.8702 56.9597 31.9884 56.3222 32.3029C55.6846 32.6174 55.1548 33.1141 54.7999 33.73L49.1999 43.44C49.0885 43.6336 49.0586 43.8635 49.1167 44.0792C49.1749 44.2949 49.3163 44.4786 49.5099 44.59C49.7035 44.7014 49.9334 44.7313 50.1491 44.6732C50.3648 44.615 50.5485 44.4736 50.6599 44.28L52.8299 40.54L56.1099 42.43L49.3399 54.1L46.0599 52.21L48.9999 47.1C49.0881 46.907 49.101 46.6881 49.036 46.4861C48.971 46.2842 48.8328 46.1138 48.6486 46.0085C48.4644 45.9033 48.2475 45.8707 48.0405 45.9172C47.8335 45.9638 47.6513 46.086 47.5299 46.26L44.1599 52.09V52.17V52.26L42.5199 60.06C42.4484 60.298 42.4566 60.5528 42.5432 60.7856C42.6299 61.0185 42.7902 61.2167 42.9999 61.35C43.1738 61.4482 43.3702 61.4999 43.5699 61.5C43.8472 61.4995 44.1144 61.3962 44.3199 61.21L50.2499 55.89L51.7499 53.28H58.2799C58.5036 53.28 58.7183 53.1918 58.8774 53.0346C59.0366 52.8773 59.1273 52.6637 59.1299 52.44V40.31L60.8799 37.31C61.3553 36.4868 61.4848 35.5086 61.2399 34.59L61.3799 34.6ZM53.6699 39L54.7299 37.16L57.9999 39.08L56.9999 40.92L53.6699 39ZM44.4499 58.79L45.4499 53.84L48.1799 55.41L44.4099 58.79H44.4499ZM57.5699 51.39H52.8699L57.5699 43.24V51.39ZM59.5699 36.39L58.8899 37.58L55.5999 35.68L56.2899 34.5C56.5429 34.0663 56.9566 33.7497 57.4413 33.6187C57.926 33.4877 58.4428 33.5528 58.8799 33.8C59.3139 34.0528 59.6301 34.4672 59.7594 34.9526C59.8887 35.438 59.8206 35.9548 59.5699 36.39Z" fill="#00BFFF"/>
</svg>
