<svg width="64" height="64" viewBox="0 0 64 64" fill="none" xmlns="http://www.w3.org/2000/svg">
<path d="M24.53 48L22.93 47.92C22.7302 47.2271 22.4587 46.5568 22.12 45.92L23.2 44.73C23.4464 44.464 23.579 44.1123 23.5696 43.7499C23.5603 43.3874 23.4097 43.043 23.15 42.79L21.15 40.79C21.019 40.6582 20.8632 40.5536 20.6916 40.4822C20.52 40.4108 20.3359 40.3741 20.15 40.3741C19.9642 40.3741 19.7801 40.4108 19.6085 40.4822C19.4369 40.5536 19.2811 40.6582 19.15 40.79L18 41.88C17.3639 41.5401 16.6935 41.2686 16 41.07V39.46C15.9821 39.0983 15.8256 38.7574 15.5631 38.508C15.3006 38.2585 14.9522 38.1196 14.59 38.12H11.79C11.4272 38.1171 11.0774 38.2552 10.8143 38.5052C10.5513 38.7551 10.3956 39.0975 10.38 39.46L10.3 41.07C9.60642 41.268 8.93594 41.5395 8.30005 41.88L7.15004 40.8C6.88928 40.5495 6.54168 40.4095 6.18005 40.4095C5.81841 40.4095 5.47081 40.5495 5.21005 40.8L3.21005 42.8C2.95949 43.0608 2.81955 43.4084 2.81955 43.77C2.81955 44.1317 2.95949 44.4793 3.21005 44.74L4.26005 46C3.92016 46.6362 3.64864 47.3066 3.45005 48H1.84005C1.4775 48.0156 1.13516 48.1713 0.88518 48.4343C0.635202 48.6973 0.497121 49.0472 0.500046 49.41V52.21C0.497121 52.5729 0.635202 52.9227 0.88518 53.1858C1.13516 53.4488 1.4775 53.6045 1.84005 53.62L3.45005 53.7C3.648 54.3937 3.91954 55.0641 4.26005 55.7L3.18005 56.85C2.92949 57.1108 2.78955 57.4584 2.78955 57.82C2.78955 58.1817 2.92949 58.5293 3.18005 58.79L5.18005 60.79C5.44081 61.0406 5.78841 61.1805 6.15004 61.1805C6.51168 61.1805 6.85928 61.0406 7.12005 60.79L8.31005 59.71C8.94679 60.0487 9.61707 60.3202 10.31 60.52L10.39 62.13C10.4056 62.4926 10.5613 62.8349 10.8243 63.0849C11.0874 63.3349 11.4372 63.473 11.8 63.47H14.6C14.9563 63.4708 15.2994 63.3357 15.5595 63.0923C15.8196 62.8489 15.9771 62.5155 16 62.16L16.07 60.55C16.7635 60.3514 17.4339 60.0799 18.07 59.74L19.25 60.82C19.3811 60.9519 19.5369 61.0565 19.7085 61.1279C19.8801 61.1993 20.0642 61.236 20.25 61.236C20.4359 61.236 20.62 61.1993 20.7916 61.1279C20.9632 61.0565 21.119 60.9519 21.25 60.82L23.25 58.82C23.5097 58.5671 23.6603 58.2226 23.6696 57.8602C23.679 57.4978 23.5464 57.1461 23.3 56.88L22.22 55.69C22.5587 55.0533 22.8302 54.383 23.03 53.69L24.63 53.61C24.9944 53.597 25.3392 53.4424 25.5913 53.1791C25.8434 52.9158 25.9829 52.5646 25.98 52.2V49.4C25.9802 49.2119 25.9424 49.0257 25.8689 48.8525C25.7954 48.6793 25.6878 48.5227 25.5525 48.392C25.4171 48.2613 25.2568 48.1592 25.0812 48.0919C24.9055 48.0246 24.7181 47.9933 24.53 48ZM24.34 52.09L22.77 52.16C22.4779 52.1724 22.1968 52.2752 21.9656 52.4544C21.7345 52.6336 21.5648 52.8802 21.48 53.16C21.3035 53.8008 21.0517 54.4184 20.73 55C20.5862 55.2572 20.5271 55.5531 20.5612 55.8458C20.5953 56.1385 20.7209 56.4129 20.92 56.63L22 57.79L20.17 59.6L19 58.54C18.7829 58.3409 18.5085 58.2153 18.2158 58.1812C17.9231 58.1471 17.6272 58.2061 17.37 58.35C16.7979 58.6695 16.1905 58.9212 15.56 59.1C15.2802 59.1848 15.0336 59.3545 14.8544 59.5856C14.6752 59.8167 14.5724 60.0979 14.56 60.39L14.47 62H11.91L11.83 60.43C11.8192 60.1374 11.7169 59.8556 11.5375 59.6242C11.3581 59.3928 11.1107 59.2235 10.83 59.14C10.2035 58.9593 9.59956 58.7077 9.03005 58.39C8.77098 58.2468 8.47364 58.1881 8.1796 58.2222C7.88555 58.2563 7.6095 58.3814 7.39005 58.58L6.21005 59.6L4.40005 57.79L5.46005 56.63C5.65652 56.4114 5.78031 56.1372 5.81435 55.8453C5.84838 55.5533 5.79097 55.258 5.65005 55C5.33055 54.4279 5.07885 53.8205 4.90005 53.19C4.81398 52.9109 4.64393 52.6651 4.41308 52.4862C4.18223 52.3072 3.90181 52.2038 3.61005 52.19L2.00005 52.09V49.53L3.57005 49.46C3.86181 49.4463 4.14223 49.3429 4.37308 49.1639C4.60393 48.9849 4.77398 48.7392 4.86005 48.46C5.03885 47.8296 5.29055 47.2222 5.61005 46.65C5.76389 46.3948 5.8323 46.0972 5.80533 45.8005C5.77835 45.5037 5.65739 45.2233 5.46005 45L4.40005 43.83L6.21005 42L7.38005 43.06C7.59718 43.2592 7.87162 43.3848 8.16429 43.4189C8.45695 43.453 8.75292 43.3939 9.01005 43.25C9.58218 42.9305 10.1896 42.6788 10.82 42.5C11.0999 42.4153 11.3465 42.2456 11.5257 42.0144C11.7048 41.7833 11.8077 41.5022 11.82 41.21L11.89 39.64H14.45L14.53 41.21C14.5409 41.5026 14.6432 41.7844 14.8226 42.0158C15.002 42.2472 15.2494 42.4166 15.53 42.5C16.1566 42.6807 16.7605 42.9324 17.33 43.25C17.5912 43.3999 17.8928 43.464 18.1924 43.4335C18.4919 43.403 18.7744 43.2794 19 43.08L20.17 42L22 43.83L20.92 45C20.724 45.2209 20.6007 45.4967 20.5667 45.7901C20.5327 46.0835 20.5897 46.3802 20.73 46.64C21.0533 47.2104 21.3051 47.8183 21.48 48.45C21.5635 48.7307 21.7328 48.9781 21.9642 49.1575C22.1956 49.3369 22.4775 49.4392 22.77 49.45L24.35 49.53V52.09H24.34ZM13.19 45.61C12.1616 45.61 11.1562 45.915 10.3011 46.4864C9.44594 47.0578 8.77945 47.8699 8.38587 48.8201C7.9923 49.7703 7.88932 50.8158 8.08996 51.8245C8.2906 52.8332 8.78586 53.7598 9.51309 54.487C10.2403 55.2142 11.1669 55.7095 12.1756 55.9101C13.1843 56.1108 14.2298 56.0078 15.18 55.6142C16.1302 55.2206 16.9423 54.5541 17.5137 53.699C18.0851 52.8439 18.39 51.8385 18.39 50.81C18.39 49.4309 17.8422 48.1083 16.867 47.1331C15.8918 46.1579 14.5692 45.61 13.19 45.61ZM13.19 54.47C12.4633 54.472 11.7524 54.2582 11.1473 53.8557C10.5423 53.4532 10.0703 52.8801 9.79134 52.2091C9.51232 51.5381 9.4388 50.7994 9.58009 50.0865C9.72138 49.3737 10.0711 48.7188 10.585 48.205C11.0988 47.6911 11.7537 47.3414 12.4665 47.2001C13.1794 47.0588 13.9181 47.1323 14.5891 47.4113C15.2601 47.6903 15.8332 48.1623 16.2357 48.7673C16.6382 49.3724 16.852 50.0833 16.85 50.81C16.8474 51.7799 16.461 52.7093 15.7751 53.3951C15.0893 54.0809 14.1599 54.4674 13.19 54.47ZM63.5 42.83C63.4983 42.6286 63.4196 42.4354 63.28 42.29L56.9 35.92C56.8298 35.8478 56.7458 35.7903 56.6531 35.7508C56.5604 35.7113 56.4608 35.6907 56.36 35.69H42.7C42.2437 35.7056 41.8113 35.8979 41.4941 36.2263C41.177 36.5547 40.9998 36.9935 41 37.45V61.74C40.9972 62.1974 41.1736 62.6376 41.4913 62.9665C41.809 63.2955 42.2429 63.487 42.7 63.5H61.7C61.9312 63.5 62.16 63.4545 62.3736 63.3661C62.5871 63.2776 62.7811 63.148 62.9446 62.9845C63.108 62.8211 63.2376 62.6271 63.3261 62.4136C63.4145 62.2 63.46 61.9712 63.46 61.74V42.83H63.5ZM57.13 38.31L60.88 42.06H57.21C57.1896 42.0579 57.1705 42.0487 57.1559 42.0342C57.1413 42.0196 57.1322 42.0005 57.13 41.98V38.31ZM61.74 62H42.74C42.6817 62 42.6257 61.9769 42.5845 61.9356C42.5432 61.8943 42.52 61.8384 42.52 61.78V37.45C42.52 37.3917 42.5432 37.3357 42.5845 37.2945C42.6257 37.2532 42.6817 37.23 42.74 37.23H55.59V42C55.5927 42.4289 55.7642 42.8394 56.0674 43.1427C56.3707 43.4459 56.7812 43.6174 57.21 43.62H62V61.74C62 61.7984 61.9769 61.8543 61.9356 61.8956C61.8943 61.9369 61.8384 61.96 61.78 61.96L61.74 62ZM48.72 40H44.65C44.5087 40 44.3687 40.028 44.2383 40.0824C44.1078 40.1368 43.9894 40.2165 43.8899 40.317C43.7904 40.4174 43.7118 40.5365 43.6586 40.6675C43.6054 40.7985 43.5787 40.9387 43.58 41.08V45.37C43.58 45.6538 43.6928 45.926 43.8934 46.1266C44.0941 46.3273 44.3663 46.44 44.65 46.44H48.72C49.0038 46.44 49.276 46.3273 49.4767 46.1266C49.6773 45.926 49.79 45.6538 49.79 45.37V41.12C49.7968 40.9754 49.7741 40.8308 49.7234 40.6952C49.6727 40.5595 49.5949 40.4356 49.4949 40.3309C49.3949 40.2262 49.2746 40.1429 49.1414 40.086C49.0082 40.0291 48.8649 39.9999 48.72 40ZM48.26 45H45.11V41.58H48.26V45ZM59.87 59.31C59.8675 59.5134 59.7855 59.7078 59.6417 59.8516C59.4978 59.9955 59.3035 60.0774 59.1 60.08H51.92C51.7158 60.08 51.52 59.9989 51.3756 59.8545C51.2312 59.7101 51.15 59.5143 51.15 59.31C51.15 59.1058 51.2312 58.91 51.3756 58.7656C51.52 58.6212 51.7158 58.54 51.92 58.54H59.1C59.3043 58.54 59.5001 58.6212 59.6445 58.7656C59.7889 58.91 59.87 59.1058 59.87 59.31ZM51.15 56.79C51.15 56.5858 51.2312 56.39 51.3756 56.2456C51.52 56.1012 51.7158 56.02 51.92 56.02H55.13C55.2379 56.0077 55.347 56.0183 55.4505 56.0511C55.5539 56.0839 55.6492 56.1382 55.7302 56.2104C55.8112 56.2827 55.876 56.3712 55.9204 56.4702C55.9647 56.5692 55.9877 56.6765 55.9877 56.785C55.9877 56.8935 55.9647 57.0008 55.9204 57.0999C55.876 57.1989 55.8112 57.2874 55.7302 57.3596C55.6492 57.4319 55.5539 57.4862 55.4505 57.519C55.347 57.5518 55.2379 57.5624 55.13 57.55H51.92C51.7175 57.55 51.5232 57.4703 51.3791 57.3281C51.235 57.1858 51.1527 56.9925 51.15 56.79ZM48.72 47.2H44.65C44.3663 47.2 44.0941 47.3128 43.8934 47.5134C43.6928 47.7141 43.58 47.9863 43.58 48.27V52.56C43.5787 52.7014 43.6054 52.8416 43.6586 52.9726C43.7118 53.1035 43.7904 53.2227 43.8899 53.3231C43.9894 53.4235 44.1078 53.5032 44.2383 53.5576C44.3687 53.612 44.5087 53.64 44.65 53.64H48.72C48.8614 53.64 49.0014 53.612 49.1318 53.5576C49.2623 53.5032 49.3807 53.4235 49.4802 53.3231C49.5797 53.2227 49.6583 53.1035 49.7115 52.9726C49.7647 52.8416 49.7914 52.7014 49.79 52.56V48.27C49.79 47.9863 49.6773 47.7141 49.4767 47.5134C49.276 47.3128 49.0038 47.2 48.72 47.2ZM48.26 52.1H45.11V48.73H48.26V52.1ZM59.87 52.34C59.87 52.4412 59.8501 52.5413 59.8114 52.6347C59.7727 52.7281 59.716 52.813 59.6445 52.8845C59.573 52.956 59.4881 53.0127 59.3947 53.0514C59.3013 53.0901 59.2012 53.11 59.1 53.11H51.92C51.7158 53.11 51.52 53.0289 51.3756 52.8845C51.2312 52.7401 51.15 52.5443 51.15 52.34C51.15 52.1358 51.2312 51.94 51.3756 51.7956C51.52 51.6512 51.7158 51.57 51.92 51.57H59.1C59.3035 51.5726 59.4978 51.6546 59.6417 51.7984C59.7855 51.9423 59.8675 52.1366 59.87 52.34ZM51.15 49.82C51.1526 49.6166 51.2346 49.4223 51.3784 49.2784C51.5223 49.1346 51.7166 49.0526 51.92 49.05H55.13C55.3343 49.05 55.5301 49.1312 55.6745 49.2756C55.8189 49.42 55.9 49.6158 55.9 49.82C55.9 50.0243 55.8189 50.2201 55.6745 50.3645C55.5301 50.5089 55.3343 50.59 55.13 50.59H51.92C51.7158 50.59 51.52 50.5089 51.3756 50.3645C51.2312 50.2201 51.15 50.0243 51.15 49.82ZM48.72 54.35H44.65C44.3653 54.3527 44.0932 54.4676 43.8928 54.6699C43.6924 54.8721 43.58 55.1453 43.58 55.43V59.72C43.58 60.0047 43.6924 60.2779 43.8928 60.4802C44.0932 60.6824 44.3653 60.7974 44.65 60.8H48.72C49.0047 60.7974 49.2769 60.6824 49.4773 60.4802C49.6776 60.2779 49.7901 60.0047 49.79 59.72V55.43C49.7901 55.1453 49.6776 54.8721 49.4773 54.6699C49.2769 54.4676 49.0047 54.3527 48.72 54.35ZM48.26 59.26H45.11V55.89H48.26V59.26ZM51.15 45.08C51.15 44.8758 51.2312 44.68 51.3756 44.5356C51.52 44.3912 51.7158 44.31 51.92 44.31H59.1C59.2079 44.2977 59.3171 44.3083 59.4205 44.3411C59.5239 44.3739 59.6192 44.4282 59.7002 44.5004C59.7812 44.5727 59.846 44.6612 59.8904 44.7602C59.9347 44.8592 59.9577 44.9665 59.9577 45.075C59.9577 45.1835 59.9347 45.2908 59.8904 45.3899C59.846 45.4889 59.7812 45.5774 59.7002 45.6496C59.6192 45.7219 59.5239 45.7762 59.4205 45.809C59.3171 45.8418 59.2079 45.8524 59.1 45.84H51.92C51.7175 45.84 51.5232 45.7603 51.3791 45.6181C51.235 45.4758 51.1527 45.2825 51.15 45.08ZM51.15 42.56C51.15 42.3558 51.2312 42.16 51.3756 42.0156C51.52 41.8712 51.7158 41.79 51.92 41.79H54.09C54.1979 41.7777 54.307 41.7883 54.4105 41.8211C54.5139 41.8539 54.6092 41.9082 54.6902 41.9804C54.7712 42.0527 54.836 42.1412 54.8804 42.2402C54.9247 42.3392 54.9477 42.4465 54.9477 42.555C54.9477 42.6635 54.9247 42.7708 54.8804 42.8699C54.836 42.9689 54.7712 43.0574 54.6902 43.1296C54.6092 43.2019 54.5139 43.2562 54.4105 43.289C54.307 43.3218 54.1979 43.3324 54.09 43.32H51.92C51.7175 43.32 51.5232 43.2403 51.3791 43.0981C51.235 42.9558 51.1527 42.7625 51.15 42.56ZM19.31 27.56C19.3126 27.7634 19.3946 27.9578 19.5384 28.1016C19.6823 28.2455 19.8766 28.3274 20.08 28.33H43.92C44.1225 28.3274 44.3158 28.2451 44.4581 28.101C44.6003 27.9569 44.6801 27.7625 44.68 27.56V24.49C44.6852 22.4227 44.029 20.4078 42.8074 18.74C41.5857 17.0722 39.8627 15.8387 37.89 15.22C37.7191 15.164 37.5339 15.1705 37.3672 15.2382C37.2006 15.306 37.0634 15.4306 36.98 15.59L34.16 20.83L33.64 19C33.6053 18.8891 33.5971 18.7716 33.6162 18.6569C33.6353 18.5422 33.6812 18.4337 33.75 18.34L35.42 16C35.5026 15.8851 35.5519 15.7496 35.5625 15.6085C35.573 15.4673 35.5445 15.326 35.48 15.2C35.413 15.0756 35.3134 14.9717 35.1918 14.8995C35.0703 14.8273 34.9314 14.7894 34.79 14.79H29.21C29.0687 14.7894 28.9298 14.8273 28.8083 14.8995C28.6867 14.9717 28.5871 15.0756 28.52 15.2C28.4556 15.326 28.427 15.4673 28.4376 15.6085C28.4482 15.7496 28.4975 15.8851 28.58 16L30.25 18.34C30.3188 18.4318 30.3647 18.5386 30.3838 18.6517C30.4029 18.7648 30.3948 18.8808 30.36 18.99L29.85 20.86L27 15.59C26.9152 15.432 26.7778 15.3086 26.6117 15.2411C26.4456 15.1735 26.2611 15.1661 26.09 15.22C24.1156 15.837 22.3903 17.0696 21.1668 18.7376C19.9432 20.4056 19.2856 22.4214 19.29 24.49L19.31 27.56ZM38 16.9C39.5165 17.5065 40.8161 18.5541 41.7307 19.9072C42.6452 21.2603 43.1327 22.8568 43.13 24.49V26.77H39.78V24.22C39.78 24.0158 39.6989 23.82 39.5545 23.6756C39.4101 23.5312 39.2143 23.45 39.01 23.45C38.8058 23.45 38.61 23.5312 38.4656 23.6756C38.3212 23.82 38.24 24.0158 38.24 24.22V26.77H32.7L38 16.9ZM31.48 17.42L30.68 16.3H33.28L32.48 17.42C32.2742 17.7052 32.1366 18.0338 32.0776 18.3805C32.0187 18.7272 32.04 19.0829 32.14 19.42L33.14 22.81L32.03 24.81L30.94 22.81L31.88 19.39C31.9802 19.0523 32.0007 18.6959 31.94 18.3489C31.8792 18.0019 31.7389 17.6737 31.53 17.39L31.48 17.42ZM20.85 24.49C20.849 22.8545 21.3394 21.2564 22.2577 19.903C23.176 18.5496 24.4798 17.5033 26 16.9L31.32 26.77H25.76V24.22C25.76 24.0158 25.6789 23.82 25.5345 23.6756C25.3901 23.5312 25.1943 23.45 24.99 23.45C24.7858 23.45 24.59 23.5312 24.4456 23.6756C24.3012 23.82 24.22 24.0158 24.22 24.22V26.77H20.85V24.49ZM32 14.4C33.2463 14.4289 34.4706 14.0688 35.5029 13.3699C36.5351 12.671 37.3241 11.6679 37.76 10.5C38.94 7.70003 38.52 4.13003 36.76 2.38003C36.1431 1.75006 35.4004 1.25707 34.5802 0.933152C33.7601 0.609238 32.881 0.461664 32 0.500034C31.1127 0.457864 30.2265 0.603531 29.3993 0.927501C28.5721 1.25147 27.8227 1.74645 27.2 2.38003C25.48 4.13003 25.06 7.70003 26.2 10.5C26.6382 11.6745 27.4333 12.6823 28.4736 13.3817C29.5138 14.0812 30.747 14.4373 32 14.4ZM28.3 3.45003C28.7759 2.95603 29.3529 2.57071 29.9915 2.32044C30.6301 2.07017 31.3153 1.96087 32 2.00003C32.6848 1.96154 33.3697 2.07114 34.0082 2.32137C34.6468 2.5716 35.2238 2.95657 35.7 3.45003C36.97 4.75003 37.27 7.71003 36.35 9.91003C36.0064 10.7823 35.4082 11.5309 34.6333 12.0586C33.8584 12.5862 32.9426 12.8683 32.005 12.8683C31.0675 12.8683 30.1517 12.5862 29.3768 12.0586C28.6019 11.5309 28.0037 10.7823 27.66 9.91003C26.73 7.71003 27.03 4.75003 28.3 3.45003ZM44.3 17.86C44.3017 17.6691 44.3743 17.4856 44.5036 17.3452C44.633 17.2048 44.8099 17.1174 45 17.1H51.2C52.0178 17.1 52.8023 17.4242 53.3815 18.0015C53.9607 18.5789 54.2874 19.3622 54.29 20.18V31.65L55.59 30.35C55.7333 30.2068 55.9275 30.1264 56.13 30.1264C56.2303 30.1264 56.3296 30.1461 56.4223 30.1845C56.5149 30.2229 56.5991 30.2791 56.67 30.35C56.741 30.4209 56.7972 30.5051 56.8356 30.5978C56.874 30.6904 56.8937 30.7897 56.8937 30.89C56.8937 30.9903 56.874 31.0896 56.8356 31.1823C56.7972 31.2749 56.741 31.3591 56.67 31.43L54.07 34C53.9277 34.1411 53.7354 34.2202 53.535 34.2202C53.3347 34.2202 53.1424 34.1411 53 34L50.39 31.39C50.3187 31.3194 50.262 31.2353 50.2234 31.1426C50.1847 31.0499 50.1648 30.9505 50.1648 30.85C50.1648 30.7496 50.1847 30.6502 50.2234 30.5575C50.262 30.4648 50.3187 30.3807 50.39 30.31C50.4616 30.2384 50.5465 30.1815 50.64 30.1427C50.7336 30.1039 50.8338 30.084 50.935 30.084C51.0363 30.084 51.1365 30.1039 51.2301 30.1427C51.3236 30.1815 51.4085 30.2384 51.48 30.31L52.78 31.61V20.18C52.7774 19.768 52.6119 19.3738 52.3196 19.0834C52.0273 18.793 51.6321 18.63 51.22 18.63H45C44.8989 18.63 44.7988 18.6101 44.7054 18.5714C44.612 18.5327 44.5271 18.476 44.4556 18.4045C44.3841 18.333 44.3274 18.2481 44.2887 18.1547C44.25 18.0613 44.23 17.9612 44.23 17.86H44.3ZM10 33.68C9.92848 33.6085 9.8717 33.5235 9.83297 33.43C9.79424 33.3365 9.7743 33.2362 9.7743 33.135C9.7743 33.0338 9.79424 32.9336 9.83297 32.8401C9.8717 32.7466 9.92848 32.6616 10 32.59C10.0716 32.5185 10.1566 32.4617 10.2501 32.423C10.3436 32.3842 10.4438 32.3643 10.545 32.3643C10.6463 32.3643 10.7465 32.3842 10.84 32.423C10.9335 32.4617 11.0185 32.5185 11.09 32.59L12.39 33.89V20.18C12.39 19.3632 12.7145 18.5798 13.2922 18.0021C13.8698 17.4245 14.6532 17.1 15.47 17.1H18.64C18.7479 17.0877 18.857 17.0983 18.9605 17.1311C19.0639 17.1639 19.1592 17.2182 19.2402 17.2904C19.3212 17.3627 19.386 17.4512 19.4304 17.5502C19.4747 17.6492 19.4977 17.7565 19.4977 17.865C19.4977 17.9735 19.4747 18.0808 19.4304 18.1799C19.386 18.2789 19.3212 18.3674 19.2402 18.4396C19.1592 18.5119 19.0639 18.5662 18.9605 18.599C18.857 18.6318 18.7479 18.6424 18.64 18.63H15.44C15.0298 18.6327 14.637 18.7968 14.3469 19.0869C14.0568 19.377 13.8927 19.7698 13.89 20.18V33.89L15.19 32.59C15.3346 32.4455 15.5306 32.3643 15.735 32.3643C15.9395 32.3643 16.1355 32.4455 16.28 32.59C16.4246 32.7346 16.5058 32.9306 16.5058 33.135C16.5058 33.3394 16.4246 33.5355 16.28 33.68L13.67 36.29C13.5231 36.43 13.328 36.5081 13.125 36.5081C12.9221 36.5081 12.727 36.43 12.58 36.29L10 33.68ZM39.62 50.24C39.7613 50.3842 39.8403 50.5782 39.84 50.78C39.8398 50.9848 39.7611 51.1816 39.62 51.33L37 53.94C36.8555 54.0846 36.6595 54.1658 36.455 54.1658C36.2506 54.1658 36.0546 54.0846 35.91 53.94C35.7655 53.7955 35.6843 53.5994 35.6843 53.395C35.6843 53.1906 35.7655 52.9946 35.91 52.85L37.21 51.55H29.6L30.9 52.85C30.9717 52.9216 31.0286 53.0065 31.0673 53.1C31.1061 53.1935 31.1261 53.2938 31.1261 53.395C31.1261 53.4963 31.1061 53.5965 31.0673 53.69C31.0286 53.7836 30.9717 53.8685 30.9 53.94C30.756 54.0817 30.5621 54.1611 30.36 54.1611C30.158 54.1611 29.9641 54.0817 29.82 53.94L27.21 51.33C27.1384 51.2585 27.0815 51.1736 27.0427 51.08C27.004 50.9865 26.984 50.8863 26.984 50.785C26.984 50.6838 27.004 50.5835 27.0427 50.49C27.0815 50.3965 27.1384 50.3116 27.21 50.24L29.82 47.63C29.8907 47.5587 29.9748 47.502 30.0675 47.4634C30.1602 47.4247 30.2596 47.4048 30.36 47.4048C30.4605 47.4048 30.5599 47.4247 30.6526 47.4634C30.7453 47.502 30.8294 47.5587 30.9 47.63C30.9717 47.7016 31.0286 47.7865 31.0673 47.88C31.1061 47.9735 31.1261 48.0738 31.1261 48.175C31.1261 48.2763 31.1061 48.3765 31.0673 48.47C31.0286 48.5636 30.9717 48.6485 30.9 48.72L29.61 50H37.22L35.92 48.7C35.8137 48.5512 35.7637 48.3694 35.7792 48.1871C35.7947 48.0048 35.8746 47.834 36.0045 47.7053C36.1345 47.5765 36.306 47.4982 36.4884 47.4844C36.6709 47.4707 36.8522 47.5223 37 47.63L39.62 50.24Z" fill="#00BFFF"/>
</svg>
