<svg width="64" height="64" viewBox="0 0 64 64" fill="none" xmlns="http://www.w3.org/2000/svg">
<path d="M13.8 21.8298V25.7598C13.7513 27.1104 13.9744 28.457 14.4561 29.7197C14.9377 30.9824 15.6682 32.1354 16.604 33.1104C17.5398 34.0854 18.6619 34.8625 19.9038 35.3955C21.1457 35.9285 22.482 36.2067 23.8334 36.2134C25.1849 36.2201 26.5239 35.9552 27.771 35.4345C29.0181 34.9138 30.1479 34.1479 31.0933 33.1822C32.0387 32.2166 32.7806 31.0708 33.2747 29.813C33.7689 28.5551 34.0053 27.2108 33.97 25.8598V21.9298" stroke="#00BFFF" stroke-width="1.6" stroke-linecap="round" stroke-linejoin="round"/>
<path d="M28.5201 5.08984C30.8607 5.89904 32.8978 7.40473 34.3582 9.40488C35.8185 11.405 36.6322 13.804 36.6901 16.2798V18.6998C36.6901 25.1598 11.0801 25.1598 11.0801 18.6998V16.2798C11.1179 13.7989 11.9238 11.3906 13.387 9.38662C14.8501 7.38264 16.8985 5.88149 19.2501 5.08984" stroke="#00BFFF" stroke-width="1.6" stroke-linecap="round" stroke-linejoin="round"/>
<path d="M11.1799 15.2799C12.7899 20.9199 35.2799 20.8199 36.6899 15.1799" stroke="#00BFFF" stroke-width="1.6" stroke-linecap="round" stroke-linejoin="round"/>
<path d="M36.3899 62.4599V48.6499H11.3899V62.4599" stroke="#00BFFF" stroke-width="1.6" stroke-linecap="round" stroke-linejoin="round"/>
<path d="M19.75 35.8499C19.7403 36.7428 19.408 37.6022 18.8144 38.2694C18.2207 38.9365 17.4058 39.3665 16.52 39.4799C15.5729 39.5571 14.6312 39.6907 13.7 39.8799C6.43999 41.0899 1.49999 44.5199 1.49999 54.2999C1.48445 55.922 1.61835 57.5422 1.89999 59.1399C2.06191 60.079 2.55383 60.9295 3.28716 61.5382C4.0205 62.1469 4.94706 62.4737 5.89999 62.4599H41.83C42.2728 62.4423 42.7122 62.3752 43.14 62.2599" stroke="#00BFFF" stroke-width="1.6" stroke-linecap="round" stroke-linejoin="round"/>
<path d="M28 35.8499C28.0093 36.7413 28.3402 37.5995 28.9319 38.2664C29.5235 38.9333 30.336 39.3642 31.22 39.4799C32.1704 39.5571 33.1154 39.6907 34.05 39.8799C36.5944 40.2396 39.0343 41.1324 41.21 42.4999" stroke="#00BFFF" stroke-width="1.6" stroke-linecap="round" stroke-linejoin="round"/>
<path d="M20.5599 19.1098L19.2499 2.87983C19.2428 2.71904 19.2693 2.55853 19.3276 2.40852C19.3859 2.2585 19.4747 2.12226 19.5885 2.00846C19.7023 1.89465 19.8386 1.80577 19.9886 1.74748C20.1386 1.68918 20.2991 1.66273 20.4599 1.66983H27.2099C27.3707 1.66273 27.5312 1.68918 27.6812 1.74748C27.8312 1.80577 27.9675 1.89465 28.0813 2.00846C28.1951 2.12226 28.284 2.2585 28.3423 2.40852C28.4006 2.55853 28.427 2.71904 28.4199 2.87983L27.1099 19.1098" stroke="#00BFFF" stroke-width="1.6" stroke-linecap="round" stroke-linejoin="round"/>
<path d="M13.6001 48.3499V39.8799" stroke="#00BFFF" stroke-width="1.6" stroke-linecap="round" stroke-linejoin="round"/>
<path d="M34.0701 39.8799V48.3499" stroke="#00BFFF" stroke-width="1.6" stroke-linecap="round" stroke-linejoin="round"/>
<path d="M56.0001 12.6599L50.6001 20.3199C50.1991 19.5741 49.6095 18.9466 48.8901 18.4999C48.2025 18.0137 47.4056 17.7046 46.5701 17.5999L51.9101 9.92993C52.3102 10.648 52.8633 11.2693 53.5301 11.7499C54.2775 12.2291 55.1204 12.5397 56.0001 12.6599Z" stroke="#00BFFF" stroke-width="1.6" stroke-linecap="round" stroke-linejoin="round"/>
<path d="M61.8999 4.68982L59.3699 8.31982L56.4499 7.70982L54.8399 5.18982L57.3599 1.55982C56.3643 1.47861 55.3648 1.66143 54.4624 2.08982C53.56 2.51822 52.7865 3.17703 52.2199 3.99982C51.7957 4.60167 51.4949 5.28153 51.3346 6.00021C51.1744 6.71888 51.158 7.46217 51.2864 8.18721C51.4147 8.91226 51.6853 9.60473 52.0826 10.2247C52.4798 10.8447 52.9958 11.3799 53.6008 11.7996C54.2059 12.2192 54.888 12.5149 55.6079 12.6697C56.3277 12.8245 57.0711 12.8353 57.7952 12.7015C58.5192 12.5676 59.2096 12.2918 59.8266 11.8899C60.4436 11.488 60.9749 10.968 61.3899 10.3598C61.9599 9.54414 62.3068 8.59368 62.3962 7.60263C62.4857 6.61159 62.3146 5.61437 61.8999 4.70982V4.68982Z" stroke="#00BFFF" stroke-width="1.6" stroke-linecap="round" stroke-linejoin="round"/>
<path d="M40.6201 25.46L43.1401 21.83L46.0701 22.44L47.6801 25L45.1601 28.63C46.1538 28.7123 47.1516 28.5321 48.0537 28.1074C48.9558 27.6827 49.7305 27.0284 50.3001 26.21C50.7177 25.6072 51.0125 24.9281 51.1676 24.2114C51.3228 23.4947 51.3353 22.7545 51.2043 22.033C51.0734 21.3115 50.8016 20.6228 50.4046 20.0063C50.0075 19.3898 49.4929 18.8576 48.8901 18.44C48.2873 18.0224 47.6082 17.7276 46.8915 17.5725C46.1748 17.4173 45.4346 17.4048 44.7131 17.5358C43.9916 17.6667 43.3029 17.9385 42.6864 18.3355C42.0699 18.7326 41.5377 19.2472 41.1201 19.85C40.5499 20.6658 40.2036 21.6168 40.1159 22.6083C40.0282 23.5997 40.202 24.5968 40.6201 25.5V25.46Z" stroke="#00BFFF" stroke-width="1.6" stroke-linecap="round" stroke-linejoin="round"/>
<path d="M56.3499 37.0598H59.8799C60.5707 37.0726 61.2297 37.3528 61.7183 37.8414C62.2069 38.33 62.4871 38.989 62.4999 39.6798V59.7398C62.4871 60.4307 62.2069 61.0897 61.7183 61.5782C61.2297 62.0668 60.5707 62.347 59.8799 62.3598H43.9999C43.309 62.347 42.65 62.0668 42.1614 61.5782C41.6729 61.0897 41.3927 60.4307 41.3799 59.7398V39.6798C41.3927 38.989 41.6729 38.33 42.1614 37.8414C42.65 37.3528 43.309 37.0726 43.9999 37.0598H47.4299" stroke="#00BFFF" stroke-width="1.6" stroke-linecap="round" stroke-linejoin="round"/>
<path d="M56.3499 35.2399V38.3699C56.3513 38.4631 56.3338 38.5555 56.2985 38.6418C56.2631 38.728 56.2107 38.8061 56.1444 38.8716C56.078 38.937 55.9991 38.9883 55.9124 39.0224C55.8257 39.0564 55.733 39.0726 55.6399 39.0699H48.0799C47.6799 39.0699 47.4799 38.7699 47.4799 38.3699V35.2399C47.4711 35.0675 47.5282 34.8982 47.6396 34.7664C47.751 34.6345 47.9084 34.55 48.0799 34.5299H50.1999C50.1184 34.341 50.0841 34.1351 50.0999 33.9299C50.0813 33.6802 50.1145 33.4294 50.1973 33.1931C50.2801 32.9569 50.4108 32.7402 50.5811 32.5567C50.7515 32.3733 50.9579 32.2269 51.1874 32.1268C51.4168 32.0268 51.6645 31.9751 51.9149 31.9751C52.1653 31.9751 52.4129 32.0268 52.6424 32.1268C52.8719 32.2269 53.0783 32.3733 53.2486 32.5567C53.419 32.7402 53.5497 32.9569 53.6325 33.1931C53.7153 33.4294 53.7484 33.6802 53.7299 33.9299C53.7453 34.1709 53.7113 34.4125 53.6299 34.6399H55.7399C56.0499 34.5299 56.3499 34.8399 56.3499 35.2399Z" stroke="#00BFFF" stroke-width="1.6" stroke-linecap="round" stroke-linejoin="round"/>
<path d="M47.28 48.55C48.6718 48.55 49.8 47.4218 49.8 46.03C49.8 44.6383 48.6718 43.51 47.28 43.51C45.8883 43.51 44.76 44.6383 44.76 46.03C44.76 47.4218 45.8883 48.55 47.28 48.55Z" stroke="#00BFFF" stroke-width="1.6" stroke-linecap="round" stroke-linejoin="round"/>
<path d="M47.28 57.9299C48.6718 57.9299 49.8 56.8017 49.8 55.4099C49.8 54.0181 48.6718 52.8899 47.28 52.8899C45.8883 52.8899 44.76 54.0181 44.76 55.4099C44.76 56.8017 45.8883 57.9299 47.28 57.9299Z" stroke="#00BFFF" stroke-width="1.6" stroke-linecap="round" stroke-linejoin="round"/>
<path d="M52.8201 43.21H59.0001" stroke="#00BFFF" stroke-width="1.6" stroke-linecap="round" stroke-linejoin="round"/>
<path d="M52.8201 45.9998H59.0001" stroke="#00BFFF" stroke-width="1.6" stroke-linecap="round" stroke-linejoin="round"/>
<path d="M52.8201 48.8499H59.0001" stroke="#00BFFF" stroke-width="1.6" stroke-linecap="round" stroke-linejoin="round"/>
<path d="M52.8201 52.5798H59.0001" stroke="#00BFFF" stroke-width="1.6" stroke-linecap="round" stroke-linejoin="round"/>
<path d="M52.8201 55.4099H59.0001" stroke="#00BFFF" stroke-width="1.6" stroke-linecap="round" stroke-linejoin="round"/>
<path d="M52.8201 58.2297H59.0001" stroke="#00BFFF" stroke-width="1.6" stroke-linecap="round" stroke-linejoin="round"/>
<path d="M15 51.2698V52.5798" stroke="#00BFFF" stroke-width="1.6" stroke-linecap="round" stroke-linejoin="round"/>
<path d="M32.76 51.2698V52.5798" stroke="#00BFFF" stroke-width="1.6" stroke-linecap="round" stroke-linejoin="round"/>
</svg>
